<?xml version="1.0" encoding="UTF-8" standalone="no"?>
<!-- Created with Inkscape (http://www.inkscape.org/) -->

<svg
   xmlns:dc="http://purl.org/dc/elements/1.1/"
   xmlns:cc="http://creativecommons.org/ns#"
   xmlns:rdf="http://www.w3.org/1999/02/22-rdf-syntax-ns#"
   xmlns:svg="http://www.w3.org/2000/svg"
   xmlns="http://www.w3.org/2000/svg"
   xmlns:sodipodi="http://sodipodi.sourceforge.net/DTD/sodipodi-0.dtd"
   xmlns:inkscape="http://www.inkscape.org/namespaces/inkscape"
   width="90"
   height="90"
   id="svg2"
   version="1.1"
   inkscape:version="0.48.3.1 r9886"
   sodipodi:docname="junk-bonuses.svg">
  <defs
     id="defs4" />
  <sodipodi:namedview
     id="base"
     pagecolor="#ffffff"
     bordercolor="#666666"
     borderopacity="1.0"
     inkscape:pageopacity="0.0"
     inkscape:pageshadow="2"
     inkscape:zoom="5.6"
     inkscape:cx="27.245215"
     inkscape:cy="28.717622"
     inkscape:document-units="px"
     inkscape:current-layer="layer1"
     showgrid="false"
     units="in"
     inkscape:snap-page="true"
     inkscape:snap-bbox="true"
     inkscape:snap-nodes="false"
     inkscape:window-width="1920"
     inkscape:window-height="1018"
     inkscape:window-x="-8"
     inkscape:window-y="-8"
     inkscape:window-maximized="1" />
  <metadata
     id="metadata7">
    <rdf:RDF>
      <cc:Work
         rdf:about="">
        <dc:format>image/svg+xml</dc:format>
        <dc:type
           rdf:resource="http://purl.org/dc/dcmitype/StillImage" />
        <dc:title />
      </cc:Work>
    </rdf:RDF>
  </metadata>
  <g
     inkscape:label="capacity"
     inkscape:groupmode="layer"
     id="layer1"
     transform="translate(0,-962.35975)"
     style="display:inline">
    <g
       transform="matrix(0.26122515,0,0,0.26122515,182.85549,954.23883)"
       id="capacity"
       inkscape:label="#g6489">
      <rect
         style="fill:#613e1b;fill-opacity:1;fill-rule:nonzero;stroke:none"
         id="rect4018"
         width="275"
         height="222.41258"
         x="-657.13434"
         y="82.663902"
         ry="28.071495"
         inkscape:export-filename="G:\apmeneel\Documents\Board Games\Junk Land\decks\color\capacity.png"
         inkscape:export-xdpi="55.878246"
         inkscape:export-ydpi="55.878246" />
      <rect
         ry="28.581474"
         y="61.480427"
         x="-657.13434"
         height="226.4532"
         width="275"
         id="rect4020"
         style="fill:#a66c32;fill-opacity:1;fill-rule:nonzero;stroke:none"
         inkscape:export-filename="G:\apmeneel\Documents\Board Games\Junk Land\decks\color\capacity.png"
         inkscape:export-xdpi="55.878246"
         inkscape:export-ydpi="55.878246" />
      <path
         style="fill:none;stroke:#ffffff;stroke-width:5.44544172;stroke-linecap:butt;stroke-linejoin:miter;stroke-miterlimit:4;stroke-opacity:1;stroke-dasharray:none"
         d="m -549.827,147.75122 c -27.77375,-16.89206 -22.67018,6.74394 -32.98092,6.12596"
         id="path4022"
         inkscape:connector-curvature="0"
         sodipodi:nodetypes="cc"
         inkscape:export-filename="G:\apmeneel\Documents\Board Games\Junk Land\decks\color\capacity.png"
         inkscape:export-xdpi="55.878246"
         inkscape:export-ydpi="55.878246" />
      <path
         style="fill:#ffffff;fill-opacity:1;stroke:none"
         d="m -538.42691,144.30282 c 0.46567,4.1772 -1.39003,9.54023 -5.56724,9.54023 -4.17721,0 -8.27045,-1.24482 -8.40666,-7.56349 -0.0906,-4.20211 4.35517,-9.37552 8.53236,-9.37552 4.17721,0 4.97588,3.22157 5.44154,7.39878 z"
         id="path4024"
         inkscape:connector-curvature="0"
         sodipodi:nodetypes="sssss"
         inkscape:export-filename="G:\apmeneel\Documents\Board Games\Junk Land\decks\color\capacity.png"
         inkscape:export-xdpi="55.878246"
         inkscape:export-ydpi="55.878246" />
      <path
         style="fill:none;stroke:#ffffff;stroke-width:5.44544172;stroke-linecap:square;stroke-linejoin:miter;stroke-miterlimit:4;stroke-opacity:1;stroke-dasharray:none"
         d="m -546.80702,138.64333 c -10.24569,-5.75719 -13.16881,-14.19994 -26.57454,-10.8871"
         id="path4026"
         inkscape:connector-curvature="0"
         sodipodi:nodetypes="cc"
         inkscape:export-filename="G:\apmeneel\Documents\Board Games\Junk Land\decks\color\capacity.png"
         inkscape:export-xdpi="55.878246"
         inkscape:export-ydpi="55.878246" />
      <path
         inkscape:export-ydpi="55.878246"
         inkscape:export-xdpi="55.878246"
         inkscape:export-filename="G:\apmeneel\Documents\Board Games\Junk Land\decks\color\capacity.png"
         style="fill:#ffffff;fill-opacity:1;stroke:#a66c32;stroke-width:5.44544172;stroke-linecap:butt;stroke-linejoin:miter;stroke-miterlimit:4;stroke-opacity:1;stroke-dasharray:none"
         d="m -517.93665,174.70753 c -2.68923,-4.10785 -29.29311,-23.8067 -22.49252,-53.42307 7.24123,-31.535268 38.72427,-1.48142 38.72427,-1.48142 0,0 19.53975,-6.33332 33.86711,-3.90018 20.1853,3.42797 -16.28787,65.281 -50.09886,58.80467 z"
         id="path4040"
         inkscape:connector-curvature="0"
         sodipodi:nodetypes="cscsc" />
      <path
         inkscape:export-ydpi="55.878246"
         inkscape:export-xdpi="55.878246"
         inkscape:export-filename="G:\apmeneel\Documents\Board Games\Junk Land\decks\color\capacity.png"
         style="fill:#ffffff;fill-opacity:1;fill-rule:nonzero;stroke:#a66c32;stroke-width:6.80680227;stroke-linecap:round;stroke-linejoin:round;stroke-miterlimit:4;stroke-opacity:1;stroke-dasharray:none;stroke-dashoffset:0"
         d="m -524.96377,156.63163 c 34.27539,0.99469 33.90745,38.99427 43.79094,76.67462 9.8835,37.68033 -26.83843,48.70979 -39.15232,49.13037 -12.31388,0.42059 -28.61607,0.97741 -40.92996,1.39799 -12.31388,0.42059 -55.28998,-4.09466 -49.75658,-46.09364 5.53341,-41.99898 51.77253,-82.10403 86.04792,-81.10934 z"
         id="path4042"
         inkscape:connector-curvature="0"
         sodipodi:nodetypes="zzzzzz" />
      <path
         inkscape:export-ydpi="55.878246"
         inkscape:export-xdpi="55.878246"
         inkscape:export-filename="G:\apmeneel\Documents\Board Games\Junk Land\decks\color\capacity.png"
         style="fill:#ffffff;stroke:#a66c32;stroke-width:5.44544172;stroke-linecap:butt;stroke-linejoin:miter;stroke-miterlimit:4;stroke-opacity:1;stroke-dasharray:none"
         d="m -523.52756,156.1567 c 0,0 0.0578,-57.613338 15.02715,-58.720148 3.46302,-0.25604 20.58899,3.178348 22.96639,6.827958 9.93159,15.24641 -21.39717,55.94561 -21.39717,55.94561 z"
         id="path4044"
         inkscape:connector-curvature="0"
         sodipodi:nodetypes="csscc" />
      <path
         inkscape:export-ydpi="55.878246"
         inkscape:export-xdpi="55.878246"
         inkscape:export-filename="G:\apmeneel\Documents\Board Games\Junk Land\decks\color\capacity.png"
         style="fill:#ffffff;fill-opacity:1;stroke:#a66c32;stroke-width:5.44544172;stroke-linecap:butt;stroke-linejoin:miter;stroke-miterlimit:4;stroke-opacity:1;stroke-dasharray:none"
         d="m -495.33318,156.78141 c 8.38552,6.73716 8.99309,20.47796 3.64569,22.13748 -1.29183,0.40091 -3.95397,-0.34726 -4.94049,-3.26341 -8.15341,-24.10151 -34.60346,-20.44742 -47.55872,-15.51193 -5.44343,-2.2231 -2.76652,-15.94782 4.48289,-19.88475 15.12128,-4.84502 34.62862,6.1258 44.37063,16.52261 z"
         id="path4046"
         inkscape:connector-curvature="0"
         sodipodi:nodetypes="cssccc" />
      <path
         inkscape:export-filename="G:\apmeneel\Documents\Board Games\Junk Land\decks\color\capacity.png"
         transform="matrix(0.75654599,0,0,0.75654599,-812.06523,-168.32547)"
         d="m 275.26657,329.59805 a 61.114227,61.114227 0 1 1 -122.22845,0 61.114227,61.114227 0 1 1 122.22845,0 z"
         sodipodi:ry="61.114227"
         sodipodi:rx="61.114227"
         sodipodi:cy="329.59805"
         sodipodi:cx="214.15234"
         id="path4048"
         style="fill:#ffffff;fill-opacity:1;fill-rule:nonzero;stroke:#a66c32;stroke-width:9.80000019;stroke-linecap:round;stroke-linejoin:round;stroke-miterlimit:4;stroke-opacity:1;stroke-dasharray:none;stroke-dashoffset:0"
         sodipodi:type="arc"
         inkscape:export-xdpi="55.878246"
         inkscape:export-ydpi="55.878246" />
      <g
         inkscape:export-ydpi="55.878246"
         inkscape:export-xdpi="55.878246"
         inkscape:export-filename="G:\apmeneel\Documents\Board Games\Junk Land\decks\color\capacity.png"
         transform="translate(-764.23896,-545.50195)"
         id="g4063">
        <g
           transform="translate(8.3188904,-149.04113)"
           id="g4101">
          <rect
             style="fill:#ffffff;fill-opacity:1;fill-rule:nonzero;stroke:#a66c32;stroke-width:4.03361368;stroke-linecap:round;stroke-linejoin:round;stroke-miterlimit:4;stroke-opacity:1;stroke-dasharray:none;stroke-dashoffset:0"
             id="rect4032"
             width="53.184029"
             height="83.466293"
             x="878.24976"
             y="480.67172"
             ry="0"
             transform="matrix(0.84574588,0.5335859,-0.81154105,0.58429541,0,0)" />
          <rect
             transform="matrix(0.84574588,0.5335859,-0.81154105,0.58429541,0,0)"
             ry="0"
             y="474.40921"
             x="872.45166"
             height="83.466293"
             width="53.184029"
             id="rect4034"
             style="fill:#ffffff;fill-opacity:1;fill-rule:nonzero;stroke:#a66c32;stroke-width:3.99210191;stroke-linecap:round;stroke-linejoin:round;stroke-miterlimit:4;stroke-opacity:1;stroke-dasharray:none;stroke-dashoffset:0" />
          <rect
             style="fill:#ffffff;fill-opacity:1;fill-rule:nonzero;stroke:#a66c32;stroke-width:3.99210191;stroke-linecap:round;stroke-linejoin:round;stroke-miterlimit:4;stroke-opacity:1;stroke-dasharray:none;stroke-dashoffset:0"
             id="rect4036"
             width="53.184029"
             height="83.466293"
             x="866.27533"
             y="467.12665"
             ry="0"
             transform="matrix(0.84574588,0.5335859,-0.81154105,0.58429541,0,0)" />
          <rect
             transform="matrix(0.84574588,0.5335859,-0.81154105,0.58429541,0,0)"
             ry="0"
             y="460.23917"
             x="859.66632"
             height="83.466293"
             width="53.184029"
             id="rect4038"
             style="fill:#ffffff;fill-opacity:1;fill-rule:nonzero;stroke:#a66c32;stroke-width:3.99207306;stroke-linecap:round;stroke-linejoin:round;stroke-miterlimit:4;stroke-opacity:1;stroke-dasharray:none;stroke-dashoffset:0" />
        </g>
      </g>
    </g>
    <g
       inkscape:label="#g6489"
       id="g3061"
       transform="matrix(0.26122515,0,0,0.26122515,182.85549,954.23883)">
      <rect
         inkscape:export-ydpi="55.878246"
         inkscape:export-xdpi="55.878246"
         inkscape:export-filename="G:\apmeneel\Documents\Board Games\Junk Land\decks\color\capacity.png"
         ry="28.071495"
         y="82.663902"
         x="-657.13434"
         height="222.41258"
         width="275"
         id="rect3063"
         style="fill:#613e1b;fill-opacity:1;fill-rule:nonzero;stroke:none" />
      <rect
         inkscape:export-ydpi="55.878246"
         inkscape:export-xdpi="55.878246"
         inkscape:export-filename="G:\apmeneel\Documents\Board Games\Junk Land\decks\color\capacity.png"
         style="fill:#a66c32;fill-opacity:1;fill-rule:nonzero;stroke:none"
         id="rect3065"
         width="275"
         height="226.4532"
         x="-657.13434"
         y="61.480427"
         ry="28.581474" />
      <path
         inkscape:export-ydpi="55.878246"
         inkscape:export-xdpi="55.878246"
         inkscape:export-filename="G:\apmeneel\Documents\Board Games\Junk Land\decks\color\capacity.png"
         sodipodi:nodetypes="cc"
         inkscape:connector-curvature="0"
         id="path3067"
         d="m -549.827,147.75122 c -27.77375,-16.89206 -22.67018,6.74394 -32.98092,6.12596"
         style="fill:none;stroke:#ffffff;stroke-width:5.44544172;stroke-linecap:butt;stroke-linejoin:miter;stroke-miterlimit:4;stroke-opacity:1;stroke-dasharray:none" />
      <path
         inkscape:export-ydpi="55.878246"
         inkscape:export-xdpi="55.878246"
         inkscape:export-filename="G:\apmeneel\Documents\Board Games\Junk Land\decks\color\capacity.png"
         sodipodi:nodetypes="sssss"
         inkscape:connector-curvature="0"
         id="path3069"
         d="m -538.42691,144.30282 c 0.46567,4.1772 -1.39003,9.54023 -5.56724,9.54023 -4.17721,0 -8.27045,-1.24482 -8.40666,-7.56349 -0.0906,-4.20211 4.35517,-9.37552 8.53236,-9.37552 4.17721,0 4.97588,3.22157 5.44154,7.39878 z"
         style="fill:#ffffff;fill-opacity:1;stroke:none" />
      <path
         inkscape:export-ydpi="55.878246"
         inkscape:export-xdpi="55.878246"
         inkscape:export-filename="G:\apmeneel\Documents\Board Games\Junk Land\decks\color\capacity.png"
         sodipodi:nodetypes="cc"
         inkscape:connector-curvature="0"
         id="path3071"
         d="m -546.80702,138.64333 c -10.24569,-5.75719 -13.16881,-14.19994 -26.57454,-10.8871"
         style="fill:none;stroke:#ffffff;stroke-width:5.44544172;stroke-linecap:square;stroke-linejoin:miter;stroke-miterlimit:4;stroke-opacity:1;stroke-dasharray:none" />
      <path
         sodipodi:nodetypes="cscsc"
         inkscape:connector-curvature="0"
         id="path3073"
         d="m -517.93665,174.70753 c -2.68923,-4.10785 -29.29311,-23.8067 -22.49252,-53.42307 7.24123,-31.535268 38.72427,-1.48142 38.72427,-1.48142 0,0 19.53975,-6.33332 33.86711,-3.90018 20.1853,3.42797 -16.28787,65.281 -50.09886,58.80467 z"
         style="fill:#ffffff;fill-opacity:1;stroke:#a66c32;stroke-width:5.44544172;stroke-linecap:butt;stroke-linejoin:miter;stroke-miterlimit:4;stroke-opacity:1;stroke-dasharray:none"
         inkscape:export-filename="G:\apmeneel\Documents\Board Games\Junk Land\decks\color\capacity.png"
         inkscape:export-xdpi="55.878246"
         inkscape:export-ydpi="55.878246" />
      <path
         sodipodi:nodetypes="zzzzzz"
         inkscape:connector-curvature="0"
         id="path3075"
         d="m -524.96377,156.63163 c 34.27539,0.99469 33.90745,38.99427 43.79094,76.67462 9.8835,37.68033 -26.83843,48.70979 -39.15232,49.13037 -12.31388,0.42059 -28.61607,0.97741 -40.92996,1.39799 -12.31388,0.42059 -55.28998,-4.09466 -49.75658,-46.09364 5.53341,-41.99898 51.77253,-82.10403 86.04792,-81.10934 z"
         style="fill:#ffffff;fill-opacity:1;fill-rule:nonzero;stroke:#a66c32;stroke-width:6.80680227;stroke-linecap:round;stroke-linejoin:round;stroke-miterlimit:4;stroke-opacity:1;stroke-dasharray:none;stroke-dashoffset:0"
         inkscape:export-filename="G:\apmeneel\Documents\Board Games\Junk Land\decks\color\capacity.png"
         inkscape:export-xdpi="55.878246"
         inkscape:export-ydpi="55.878246" />
      <path
         sodipodi:nodetypes="csscc"
         inkscape:connector-curvature="0"
         id="path3077"
         d="m -523.52756,156.1567 c 0,0 0.0578,-57.613338 15.02715,-58.720148 3.46302,-0.25604 20.58899,3.178348 22.96639,6.827958 9.93159,15.24641 -21.39717,55.94561 -21.39717,55.94561 z"
         style="fill:#ffffff;stroke:#a66c32;stroke-width:5.44544172;stroke-linecap:butt;stroke-linejoin:miter;stroke-miterlimit:4;stroke-opacity:1;stroke-dasharray:none"
         inkscape:export-filename="G:\apmeneel\Documents\Board Games\Junk Land\decks\color\capacity.png"
         inkscape:export-xdpi="55.878246"
         inkscape:export-ydpi="55.878246" />
      <path
         sodipodi:nodetypes="cssccc"
         inkscape:connector-curvature="0"
         id="path3079"
         d="m -495.33318,156.78141 c 8.38552,6.73716 8.99309,20.47796 3.64569,22.13748 -1.29183,0.40091 -3.95397,-0.34726 -4.94049,-3.26341 -8.15341,-24.10151 -34.60346,-20.44742 -47.55872,-15.51193 -5.44343,-2.2231 -2.76652,-15.94782 4.48289,-19.88475 15.12128,-4.84502 34.62862,6.1258 44.37063,16.52261 z"
         style="fill:#ffffff;fill-opacity:1;stroke:#a66c32;stroke-width:5.44544172;stroke-linecap:butt;stroke-linejoin:miter;stroke-miterlimit:4;stroke-opacity:1;stroke-dasharray:none"
         inkscape:export-filename="G:\apmeneel\Documents\Board Games\Junk Land\decks\color\capacity.png"
         inkscape:export-xdpi="55.878246"
         inkscape:export-ydpi="55.878246" />
      <path
         inkscape:export-ydpi="55.878246"
         inkscape:export-xdpi="55.878246"
         sodipodi:type="arc"
         style="fill:#ffffff;fill-opacity:1;fill-rule:nonzero;stroke:#a66c32;stroke-width:9.80000019;stroke-linecap:round;stroke-linejoin:round;stroke-miterlimit:4;stroke-opacity:1;stroke-dasharray:none;stroke-dashoffset:0"
         id="path3081"
         sodipodi:cx="214.15234"
         sodipodi:cy="329.59805"
         sodipodi:rx="61.114227"
         sodipodi:ry="61.114227"
         d="m 275.26657,329.59805 c 0,33.75246 -27.36177,61.11423 -61.11423,61.11423 -33.75245,0 -61.11422,-27.36177 -61.11422,-61.11423 0,-33.75245 27.36177,-61.11422 61.11422,-61.11422 33.75246,0 61.11423,27.36177 61.11423,61.11422 z"
         transform="matrix(0.75654599,0,0,0.75654599,-812.06523,-168.32547)"
         inkscape:export-filename="G:\apmeneel\Documents\Board Games\Junk Land\decks\color\capacity.png" />
      <g
         id="g3083"
         transform="translate(-764.23896,-545.50195)"
         inkscape:export-filename="G:\apmeneel\Documents\Board Games\Junk Land\decks\color\capacity.png"
         inkscape:export-xdpi="55.878246"
         inkscape:export-ydpi="55.878246">
        <g
           id="g3085"
           transform="translate(8.3188904,-149.04113)">
          <rect
             transform="matrix(0.84574588,0.5335859,-0.81154105,0.58429541,0,0)"
             ry="0"
             y="480.67172"
             x="878.24976"
             height="83.466293"
             width="53.184029"
             id="rect3087"
             style="fill:#ffffff;fill-opacity:1;fill-rule:nonzero;stroke:#a66c32;stroke-width:4.03361368;stroke-linecap:round;stroke-linejoin:round;stroke-miterlimit:4;stroke-opacity:1;stroke-dasharray:none;stroke-dashoffset:0" />
          <rect
             style="fill:#ffffff;fill-opacity:1;fill-rule:nonzero;stroke:#a66c32;stroke-width:3.99210191;stroke-linecap:round;stroke-linejoin:round;stroke-miterlimit:4;stroke-opacity:1;stroke-dasharray:none;stroke-dashoffset:0"
             id="rect3089"
             width="53.184029"
             height="83.466293"
             x="872.45166"
             y="474.40921"
             ry="0"
             transform="matrix(0.84574588,0.5335859,-0.81154105,0.58429541,0,0)" />
          <rect
             transform="matrix(0.84574588,0.5335859,-0.81154105,0.58429541,0,0)"
             ry="0"
             y="467.12665"
             x="866.27533"
             height="83.466293"
             width="53.184029"
             id="rect3091"
             style="fill:#ffffff;fill-opacity:1;fill-rule:nonzero;stroke:#a66c32;stroke-width:3.99210191;stroke-linecap:round;stroke-linejoin:round;stroke-miterlimit:4;stroke-opacity:1;stroke-dasharray:none;stroke-dashoffset:0" />
          <rect
             style="fill:#ffffff;fill-opacity:1;fill-rule:nonzero;stroke:#a66c32;stroke-width:3.99207306;stroke-linecap:round;stroke-linejoin:round;stroke-miterlimit:4;stroke-opacity:1;stroke-dasharray:none;stroke-dashoffset:0"
             id="rect3093"
             width="53.184029"
             height="83.466293"
             x="859.66632"
             y="460.23917"
             ry="0"
             transform="matrix(0.84574588,0.5335859,-0.81154105,0.58429541,0,0)" />
        </g>
      </g>
    </g>
  </g>
  <g
     inkscape:groupmode="layer"
     id="layer2"
     inkscape:label="initiative"
     style="display:inline">
    <g
       id="initiative"
       transform="matrix(0.26122512,0,0,0.26122512,17.61801,23.004987)"
       inkscape:label="#g3041">
      <rect
         inkscape:export-ydpi="61.756077"
         inkscape:export-xdpi="61.756077"
         inkscape:export-filename="G:\apmeneel\Dropbox\Board Games\Junk Land\art\icons\bonus-initiative.png"
         ry="28.071495"
         y="-36.489689"
         x="-24.586161"
         height="222.41258"
         width="275"
         id="rect4109"
         style="fill:#6a0816;fill-opacity:1;fill-rule:nonzero;stroke:none" />
      <rect
         inkscape:export-ydpi="61.756077"
         inkscape:export-xdpi="61.756077"
         inkscape:export-filename="G:\apmeneel\Dropbox\Board Games\Junk Land\art\icons\bonus-initiative.png"
         style="fill:#b50f24;fill-opacity:1;fill-rule:nonzero;stroke:none"
         id="rect4111"
         width="275"
         height="226.4532"
         x="-24.586161"
         y="-57.673168"
         ry="28.581474" />
      <path
         inkscape:export-filename="G:\apmeneel\Dropbox\Board Games\Junk Land\art\icons\bonus-initiative.png"
         inkscape:export-ydpi="61.756077"
         inkscape:export-xdpi="61.756077"
         sodipodi:type="arc"
         style="fill:#ffffff;fill-opacity:1;fill-rule:nonzero;stroke:#b50f24;stroke-width:9.80000019;stroke-linecap:round;stroke-linejoin:round;stroke-miterlimit:4;stroke-opacity:1;stroke-dasharray:none;stroke-dashoffset:0"
         id="path4127"
         sodipodi:cx="214.15234"
         sodipodi:cy="329.59805"
         sodipodi:rx="61.114227"
         sodipodi:ry="61.114227"
         d="m 275.26657,329.59805 a 61.114227,61.114227 0 1 1 -122.22845,0 61.114227,61.114227 0 1 1 122.22845,0 z"
         transform="matrix(0.75654599,0,0,0.75654599,-179.51708,-287.47904)" />
      <g
         inkscape:export-ydpi="61.756077"
         inkscape:export-xdpi="61.756077"
         inkscape:export-filename="G:\apmeneel\Dropbox\Board Games\Junk Land\art\icons\bonus-initiative.png"
         style="stroke:#b50f24;stroke-opacity:1"
         id="g4129"
         transform="translate(-131.69078,-664.65552)">
        <g
           style="stroke:#b50f24;stroke-opacity:1"
           id="g4131"
           transform="translate(8.3188904,-149.04113)">
          <rect
             transform="matrix(0.84574588,0.5335859,-0.81154105,0.58429541,0,0)"
             ry="0"
             y="480.67172"
             x="878.24976"
             height="83.466293"
             width="53.184029"
             id="rect4133"
             style="fill:#ffffff;fill-opacity:1;fill-rule:nonzero;stroke:#b50f24;stroke-width:4.03361368;stroke-linecap:round;stroke-linejoin:round;stroke-miterlimit:4;stroke-opacity:1;stroke-dasharray:none;stroke-dashoffset:0" />
          <rect
             style="fill:#ffffff;fill-opacity:1;fill-rule:nonzero;stroke:#b50f24;stroke-width:3.99210191;stroke-linecap:round;stroke-linejoin:round;stroke-miterlimit:4;stroke-opacity:1;stroke-dasharray:none;stroke-dashoffset:0"
             id="rect4135"
             width="53.184029"
             height="83.466293"
             x="872.45166"
             y="474.40921"
             ry="0"
             transform="matrix(0.84574588,0.5335859,-0.81154105,0.58429541,0,0)" />
          <rect
             transform="matrix(0.84574588,0.5335859,-0.81154105,0.58429541,0,0)"
             ry="0"
             y="467.12665"
             x="866.27533"
             height="83.466293"
             width="53.184029"
             id="rect4137"
             style="fill:#ffffff;fill-opacity:1;fill-rule:nonzero;stroke:#b50f24;stroke-width:3.99210191;stroke-linecap:round;stroke-linejoin:round;stroke-miterlimit:4;stroke-opacity:1;stroke-dasharray:none;stroke-dashoffset:0" />
          <rect
             style="fill:#ffffff;fill-opacity:1;fill-rule:nonzero;stroke:#b50f24;stroke-width:3.99207306;stroke-linecap:round;stroke-linejoin:round;stroke-miterlimit:4;stroke-opacity:1;stroke-dasharray:none;stroke-dashoffset:0"
             id="rect4139"
             width="53.184029"
             height="83.466293"
             x="859.66632"
             y="460.23917"
             ry="0"
             transform="matrix(0.84574588,0.5335859,-0.81154105,0.58429541,0,0)" />
        </g>
      </g>
      <g
         inkscape:export-ydpi="61.756077"
         inkscape:export-xdpi="61.756077"
         inkscape:export-filename="G:\apmeneel\Dropbox\Board Games\Junk Land\art\icons\bonus-initiative.png"
         transform="matrix(-0.53594305,-0.84425412,0.84425412,-0.53594305,-432.59778,764.82792)"
         id="g4162">
        <path
           style="fill:#ffffff;fill-opacity:1;fill-rule:nonzero;stroke:none"
           d="m 286.14241,749.1667 c -14.10384,0 -28.52676,-33.00697 -25.78979,-34.12707 2.73696,-1.1201 14.23545,0.62112 25.75127,0.61505 11.40855,-0.006 22.83627,-1.76993 25.32324,-0.61505 2.48697,1.15488 -11.18087,34.12707 -25.28472,34.12707 z"
           id="path4143"
           inkscape:connector-curvature="0"
           sodipodi:nodetypes="czszc" />
        <path
           sodipodi:nodetypes="scscs"
           inkscape:connector-curvature="0"
           id="path4146"
           d="m 285.6403,736.79234 c -8.66251,0 -15.68485,-5.98316 -15.68485,-14.96067 4.3091,-1.85304 9.22193,1.39304 15.91041,1.28271 5.80957,-0.0958 12.53999,-1.98158 15.45929,-1.28271 0,8.97751 -7.02235,14.96067 -15.68485,14.96067 z"
           style="fill:#b50f24;fill-opacity:1;fill-rule:nonzero;stroke:none" />
        <path
           transform="matrix(0,1,-1,0,0,0)"
           style="fill:#ffffff;fill-opacity:1;fill-rule:nonzero;stroke:none"
           d="m 745.1261,-292.45227 c 51.77032,4.41939 103.54064,0.0278 155.31096,0 l 0,13.11886 c -51.76781,-0.0151 -102.89771,-3.8576 -155.31096,0 z"
           id="rect4148"
           inkscape:connector-curvature="0"
           sodipodi:nodetypes="ccccc" />
        <path
           style="fill:#ffffff;fill-opacity:1;fill-rule:nonzero;stroke:none"
           d="m 321.07141,846.83604 c 0,42.99931 -16.78375,72.92826 -35.17856,77.85714 -18.80642,-5.03916 -35.17858,-34.85783 -35.17858,-77.85714 4.93058,-1.6575 23.39487,5.90699 35.15917,5.7978 11.62814,-0.10793 31.51646,-7.85387 35.19797,-5.7978 z"
           id="path4155"
           inkscape:connector-curvature="0"
           sodipodi:nodetypes="cccsc" />
        <path
           style="fill:#ffffff;fill-opacity:1;fill-rule:nonzero;stroke:#b50f24;stroke-width:3;stroke-miterlimit:4;stroke-opacity:1"
           d="m 296.96427,851.21105 c 0,9.66498 -4.95685,25 -11.07143,25 -6.11458,0 -11.07143,-15.33502 -11.07143,-25 7.82796,-5.3182 15.26656,-3.72512 22.14286,0 z"
           id="path4158"
           inkscape:connector-curvature="0"
           sodipodi:nodetypes="cscc" />
      </g>
      <path
         inkscape:export-ydpi="61.756077"
         inkscape:export-xdpi="61.756077"
         inkscape:export-filename="G:\apmeneel\Dropbox\Board Games\Junk Land\art\icons\bonus-initiative.png"
         sodipodi:nodetypes="ccscscsccscscscccc"
         inkscape:connector-curvature="0"
         d="m 144.80605,17.813733 c -0.77825,-2.80693 -2.22432,-5.01911 -3.61795,-7.234086 -2.90066,-4.0202896 -6.18482,-7.5968796 -9.63198,-10.94090965 -0.808,-0.78381995 -1.63845,-1.53756995 -2.45769,-2.30632995 -5.07764,-4.70111 -10.505,-8.9584304 -16.48425,-12.3226004 -1.30753,-0.73567 -2.66725,-1.38372 -4.00087,-2.07558 -3.6398,-1.76487 -7.45201,-3.225608 -11.40507,-4.398428 -2.84877,-0.84518 -5.78991,-1.48867 -8.75146,-2.08842 -10.9222,-1.15031 -8.03219,-3.45378 0.64233,-1.41881 2.36921,0.57902 3.03804,0.71747 5.44192,1.41631 5.06716,1.4731 9.95881,3.30911 14.58886,5.608938 1.34135,0.6958 2.70658,1.35143 4.02405,2.08735 6.01636,3.36071 11.55669,7.5051104 16.74471,12.1091304 0.83008,0.76396 1.66999,1.51464 2.49024,2.29186 3.5151,3.3308 6.86939,6.8885 9.9162,10.80963 1.5179,2.1991296 3.04309,4.4082756 4.09517,7.0866256 0.38116,1.06131 -1.21301,2.43663 -1.59417,1.37531 z"
         id="path4291"
         style="fill:#ffffff;fill-opacity:1;fill-rule:nonzero;stroke:none" />
      <path
         inkscape:export-ydpi="61.756077"
         inkscape:export-xdpi="61.756077"
         inkscape:export-filename="G:\apmeneel\Dropbox\Board Games\Junk Land\art\icons\bonus-initiative.png"
         style="fill:#ffffff;fill-opacity:1;fill-rule:nonzero;stroke:none"
         id="path4293"
         d="m 126.46258,21.158293 c -1.21708,-2.64636 -2.99828,-4.59884 -4.72817,-6.56247 -3.5062,-3.504716 -7.32002,-6.5101256 -11.25756,-9.2599056 -0.92294,-0.64453 -1.86323,-1.25578 -2.79486,-1.88365 -5.76404,-3.82867005 -11.80233,-7.16334 -18.24259,-9.5281 -1.40834,-0.51712 -2.8542,-0.93941 -4.28129,-1.40911 -3.87517,-1.16013 -7.87191,-1.99248 -11.96165,-2.5180904 -2.94726,-0.37877 -5.95345,-0.54367 -8.97279,-0.66213 -10.9656,0.61102 -8.48112,-2.12494 0.40718,-1.50327 2.43132,0.19272 3.11368,0.22244 5.59837,0.52789 5.23752,0.64387 10.35981,1.6740504 15.29804,3.2039204 1.43535,0.47235 2.88786,0.90124 4.30605,1.41702 6.47634,2.35541 12.6081,5.56054 18.46557,9.27572 0.94156,0.6214 1.8907,1.22811 2.82468,1.86417 4.00248,2.72585 7.88251,5.7014 11.51713,9.0848656 1.85002,1.92811 3.70884,3.86495 5.17567,6.3406 0.54596,0.9867 -0.80777,2.59924 -1.35374,1.61253 z"
         inkscape:connector-curvature="0"
         sodipodi:nodetypes="ccscscsccscscscccc" />
      <path
         inkscape:export-ydpi="61.756077"
         inkscape:export-xdpi="61.756077"
         inkscape:export-filename="G:\apmeneel\Dropbox\Board Games\Junk Land\art\icons\bonus-initiative.png"
         style="fill:#ffffff;fill-opacity:1;fill-rule:nonzero;stroke:none"
         id="path4295"
         d="m 167.99704,15.487103 c -0.72971,-2.81994 -2.13739,-5.056736 -3.49259,-7.2954356 -2.83086,-4.06974 -6.05282,-7.70246005 -9.44177,-11.10548 -0.79436,-0.79764 -1.61167,-1.5656 -2.41753,-2.34839 -4.99577,-4.7880204 -10.34886,-9.1383504 -16.26917,-12.6051904 -1.29464,-0.75812 -2.64298,-1.429538 -3.96447,-2.144298 -3.60879,-1.82741 -7.39524,-3.35371 -11.32748,-4.59457 -2.83376,-0.89421 -5.76335,-1.58835 -8.71411,-2.23911 -10.90073,-1.33859 -7.97141,-3.59185 0.66671,-1.40752 2.35887,0.61982 3.02521,0.76979 5.41667,1.51 5.04099,1.56031 9.90023,3.48045 14.48991,5.85984 1.32914,0.71883 2.68286,1.39792 3.98743,2.156468 5.95748,3.46402 11.42548,7.70339 16.53329,12.3962404 0.81677,0.77817 1.6436,1.54323 2.45032,2.33449 3.4571,3.39094995 6.74951,7.006 9.72821,10.97912 1.47973,2.22499 2.96657,4.4601396 3.97228,7.1562356 0.36279,1.06772 -1.25487,2.41533 -1.61766,1.3476 z"
         inkscape:connector-curvature="0"
         sodipodi:nodetypes="ccscscsccscscscccc" />
    </g>
  </g>
</svg>
