<?xml version="1.0" encoding="UTF-8" standalone="no"?>
<!-- Created with Inkscape (http://www.inkscape.org/) -->

<svg
   xmlns:dc="http://purl.org/dc/elements/1.1/"
   xmlns:cc="http://creativecommons.org/ns#"
   xmlns:rdf="http://www.w3.org/1999/02/22-rdf-syntax-ns#"
   xmlns:svg="http://www.w3.org/2000/svg"
   xmlns="http://www.w3.org/2000/svg"
   xmlns:sodipodi="http://sodipodi.sourceforge.net/DTD/sodipodi-0.dtd"
   xmlns:inkscape="http://www.inkscape.org/namespaces/inkscape"
   width="90"
   height="90"
   id="svg3803"
   version="1.1"
   inkscape:version="0.91 r13725"
   sodipodi:docname="resources.svg">
  <defs
     id="defs3805">
    <inkscape:path-effect
       effect="spiro"
       id="path-effect6296"
       is_visible="true" />
    <inkscape:perspective
       sodipodi:type="inkscape:persp3d"
       inkscape:vp_x="-41.2522 : 175.3937 : 0"
       inkscape:vp_y="0 : 1000 : 0"
       inkscape:vp_z="-1272.743 : -1193.8189 : 1"
       inkscape:persp3d-origin="-1313.9952 : -1369.2126 : 1"
       id="perspective6254" />
    <inkscape:path-effect
       effect="spiro"
       id="path-effect4171"
       is_visible="true" />
  </defs>
  <sodipodi:namedview
     id="base"
     pagecolor="#ffffff"
     bordercolor="#666666"
     borderopacity="1.0"
     inkscape:pageopacity="0.0"
     inkscape:pageshadow="2"
     inkscape:zoom="4"
     inkscape:cx="28.028707"
     inkscape:cy="71.017994"
     inkscape:document-units="px"
     inkscape:current-layer="layer6"
     showgrid="false"
     inkscape:window-width="1920"
     inkscape:window-height="1018"
     inkscape:window-x="-8"
     inkscape:window-y="-8"
     inkscape:window-maximized="1"
     showguides="true"
     inkscape:guide-bbox="true"
     units="in"
     inkscape:snap-global="true"
     inkscape:snap-page="true"
     inkscape:snap-bbox="true"
     inkscape:bbox-paths="true"
     inkscape:bbox-nodes="true"
     inkscape:snap-nodes="false"
     inkscape:snap-grids="false"
     inkscape:snap-to-guides="true" />
  <metadata
     id="metadata3808">
    <rdf:RDF>
      <cc:Work
         rdf:about="">
        <dc:format>image/svg+xml</dc:format>
        <dc:type
           rdf:resource="http://purl.org/dc/dcmitype/StillImage" />
        <dc:title />
      </cc:Work>
    </rdf:RDF>
  </metadata>
  <g
     inkscape:label="string layer"
     inkscape:groupmode="layer"
     id="layer1"
     transform="translate(0,-962.35975)"
     style="display:inline">
    <g
       id="string"
       inkscape:label="#g5447"
       transform="matrix(0.33060352,0,0,0.33060352,113.716,951.94843)">
      <rect
         inkscape:export-ydpi="56.406223"
         inkscape:export-xdpi="56.406223"
         inkscape:export-filename="G:\apmeneel\Dropbox\Art\Junk Land\string.png"
         style="fill:#800080;fill-opacity:1;fill-rule:nonzero;stroke:none"
         id="rect4589"
         width="220.71428"
         height="220.71428"
         x="-309.39813"
         y="83.006996"
         ry="27.857143" />
      <rect
         inkscape:export-ydpi="56.406223"
         inkscape:export-xdpi="56.406223"
         inkscape:export-filename="G:\apmeneel\Dropbox\Art\Junk Land\string.png"
         ry="27.857143"
         y="67.006996"
         x="-309.39813"
         height="220.71428"
         width="220.71428"
         id="rect2985-1"
         style="fill:#b142f0;fill-opacity:1;fill-rule:nonzero;stroke:none" />
      <circle
         inkscape:export-ydpi="56.406223"
         inkscape:export-xdpi="56.406223"
         inkscape:export-filename="G:\apmeneel\Dropbox\Art\Junk Land\string.png"
         transform="matrix(0.75654599,0,0,0.75654599,-456.0382,-167.92143)"
         id="path3817-7"
         style="fill:#ffffff;fill-opacity:1;fill-rule:nonzero;stroke:#b142f0;stroke-width:9.80000019;stroke-linecap:round;stroke-linejoin:round;stroke-miterlimit:4;stroke-dasharray:none;stroke-dashoffset:0;stroke-opacity:1"
         cx="214.15234"
         cy="329.59805"
         r="61.114227" />
      <path
         inkscape:export-ydpi="56.406223"
         inkscape:export-xdpi="56.406223"
         inkscape:export-filename="G:\apmeneel\Dropbox\Art\Junk Land\string.png"
         sodipodi:nodetypes="czzc"
         inkscape:connector-curvature="0"
         id="path6720"
         d="m -163.48338,193.22017 c 12.30985,7.08196 22.84974,11.55804 35.54931,21.04692 12.69957,9.48889 30.370708,23.5784 13.93126,30.80677 -16.43945,7.22838 -68.52344,-17.67598 -85.55205,8.86057"
         style="fill:none;stroke:#ffffff;stroke-width:6.25;stroke-linecap:round;stroke-linejoin:miter;stroke-miterlimit:4;stroke-dasharray:none;stroke-opacity:1" />
      <circle
         inkscape:export-ydpi="56.406223"
         inkscape:export-xdpi="56.406223"
         inkscape:export-filename="G:\apmeneel\Dropbox\Art\Junk Land\string.png"
         transform="matrix(0.70846797,0,0,0.70846797,-485.77916,-156.77308)"
         id="path3806"
         style="fill:#ffffff;fill-opacity:1;fill-rule:nonzero;stroke:#b142f0;stroke-width:8.82185268;stroke-linecap:round;stroke-linejoin:round;stroke-miterlimit:4;stroke-dasharray:none;stroke-dashoffset:0;stroke-opacity:1"
         cx="386.88843"
         cy="467.48386"
         r="86.873116" />
      <path
         inkscape:export-ydpi="56.406223"
         inkscape:export-xdpi="56.406223"
         inkscape:export-filename="G:\apmeneel\Dropbox\Art\Junk Land\string.png"
         style="fill:none;stroke:#b142f0;stroke-width:6.25;stroke-linecap:butt;stroke-linejoin:miter;stroke-miterlimit:4;stroke-dasharray:none;stroke-opacity:1"
         d="m -138.75939,142.32562 c -38.95528,25.61489 -86.10704,29.69859 -134.16599,24.45504 l -13.95463,-2.15186"
         id="path3769"
         inkscape:connector-curvature="0"
         sodipodi:nodetypes="ccc" />
      <path
         inkscape:export-ydpi="56.406223"
         inkscape:export-xdpi="56.406223"
         inkscape:export-filename="G:\apmeneel\Dropbox\Art\Junk Land\string.png"
         sodipodi:nodetypes="ccc"
         inkscape:connector-curvature="0"
         id="path3771"
         d="m -137.64292,155.43542 c -38.95528,25.61489 -86.10704,29.69859 -134.166,24.45505 l -13.95463,-2.15187"
         style="fill:none;stroke:#b142f0;stroke-width:6.25;stroke-linecap:butt;stroke-linejoin:miter;stroke-miterlimit:4;stroke-dasharray:none;stroke-opacity:1" />
      <path
         inkscape:export-ydpi="56.406223"
         inkscape:export-xdpi="56.406223"
         inkscape:export-filename="G:\apmeneel\Dropbox\Art\Junk Land\string.png"
         style="fill:none;stroke:#b142f0;stroke-width:6.25;stroke-linecap:butt;stroke-linejoin:miter;stroke-miterlimit:4;stroke-dasharray:none;stroke-opacity:1"
         d="m -274.72086,206.00339 c 14.09654,-44.44011 42.90521,-71.14385 83.52006,-97.36585 l 12.18979,-7.12538"
         id="path3773"
         inkscape:connector-curvature="0"
         sodipodi:nodetypes="ccc" />
      <path
         inkscape:export-ydpi="56.406223"
         inkscape:export-xdpi="56.406223"
         inkscape:export-filename="G:\apmeneel\Dropbox\Art\Junk Land\string.png"
         sodipodi:nodetypes="ccc"
         inkscape:connector-curvature="0"
         id="path3775"
         d="m -265.44549,217.28191 c 14.09654,-44.44013 38.53036,-73.74213 79.1452,-99.96414 l 12.1898,-7.12538"
         style="fill:none;stroke:#b142f0;stroke-width:6.25;stroke-linecap:butt;stroke-linejoin:miter;stroke-miterlimit:4;stroke-dasharray:none;stroke-opacity:1" />
      <path
         inkscape:export-ydpi="56.406223"
         inkscape:export-xdpi="56.406223"
         inkscape:export-filename="G:\apmeneel\Dropbox\Art\Junk Land\string.png"
         style="fill:none;stroke:#b142f0;stroke-width:6.25;stroke-linecap:butt;stroke-linejoin:miter;stroke-miterlimit:4;stroke-dasharray:none;stroke-opacity:1"
         d="m -256.49425,226.44844 c 14.09652,-44.44014 36.51112,-72.72017 77.12595,-98.94219 l 12.1898,-7.12537"
         id="path3777"
         inkscape:connector-curvature="0"
         sodipodi:nodetypes="ccc" />
    </g>
    <rect
       ry="0"
       y="-46.229877"
       x="4091.0374"
       height="350"
       width="350"
       id="rect12439"
       style="fill:#ffffff;stroke:none" />
  </g>
  <g
     inkscape:groupmode="layer"
     id="layer2"
     inkscape:label="wood layer"
     style="display:inline">
    <g
       id="wood"
       inkscape:label="wood">
      <rect
         inkscape:export-ydpi="56.41"
         inkscape:export-xdpi="56.41"
         inkscape:export-filename="G:\apmeneel\Dropbox\Art\Junk Land\wood.png"
         style="fill:#552200;fill-opacity:1;fill-rule:nonzero;stroke:none"
         id="rect4587"
         width="72.968918"
         height="72.968918"
         x="11.427889"
         y="17.031082"
         ry="9.2096701" />
      <rect
         inkscape:export-ydpi="56.41"
         inkscape:export-xdpi="56.41"
         inkscape:export-filename="G:\apmeneel\Dropbox\Art\Junk Land\wood.png"
         ry="9.2096701"
         y="11.741426"
         x="11.427889"
         height="72.968918"
         width="72.968918"
         id="rect2985"
         style="fill:#a05a2c;fill-opacity:1;fill-rule:nonzero;stroke:none" />
      <circle
         inkscape:export-ydpi="56.41"
         inkscape:export-xdpi="56.41"
         inkscape:export-filename="G:\apmeneel\Dropbox\Art\Junk Land\wood.png"
         id="path3817"
         style="fill:#ffffff;fill-opacity:1;fill-rule:nonzero;stroke:#a05a2c;stroke-width:2.45114446;stroke-linecap:round;stroke-linejoin:round;stroke-miterlimit:4;stroke-dasharray:none;stroke-dashoffset:0;stroke-opacity:1"
         cx="16.511265"
         cy="16.511265"
         r="15.285693" />
      <path
         sodipodi:nodetypes="csscsscccc"
         inkscape:connector-curvature="0"
         id="rect4225"
         d="m 16.365073,61.078391 c 3.940435,0.40582 7.905483,0.781471 11.845372,1.241945 0.08238,0.0096 0.178895,0.139108 0.239344,0.355633 l 1.294027,2.742776 1.770627,-2.520006 c 0.08382,-0.1193 0.222785,-0.139493 0.327874,-0.125456 8.591821,1.147671 16.989142,2.872771 24.667863,6.385692 l 0.566033,5.343588 -40.145107,-8.080583 z"
         style="opacity:1;fill:#ffffff;fill-opacity:1;fill-rule:nonzero;stroke:#a05a2c;stroke-width:1.20000005;stroke-linecap:square;stroke-linejoin:round;stroke-miterlimit:4;stroke-dasharray:none;stroke-dashoffset:0;stroke-opacity:1" />
      <path
         sodipodi:nodetypes="cccccscsssscssc"
         inkscape:connector-curvature="0"
         id="rect4228"
         d="m 48.810269,21.738505 5.778505,1.406936 -1.943756,5.352145 3.467938,-4.981041 14.832175,3.6113 c -0.77249,3.233008 -2.515808,6.427703 -3.346207,9.401248 C 64.3251,48.252206 61.269179,57.928286 56.707937,68.213954 45.466611,64.888496 38.325795,63.164577 31.23056,62.076929 c -0.491051,-0.07527 1.273073,-6.873188 1.010533,-6.451376 l -3.573936,5.742109 c -0.13033,0.209396 -0.261013,0.308564 -0.326665,0.300006 -3.579029,-0.466567 -7.283971,-0.806716 -11.621864,-1.141151 3.840168,-3.32041 8.919429,-7.924378 12.455703,-11.599331 3.067397,-3.187688 7.805377,-10.481724 10.34903,-13.784194 4.076005,-5.291948 5.653026,-6.80152 9.286908,-13.404487 z"
         style="opacity:1;fill:#ffffff;fill-opacity:1;fill-rule:nonzero;stroke:#a05a2c;stroke-width:1.20000005;stroke-linecap:square;stroke-linejoin:round;stroke-miterlimit:4;stroke-dasharray:none;stroke-dashoffset:0;stroke-opacity:1" />
      <path
         style="opacity:1;fill:#ffffff;fill-opacity:1;fill-rule:nonzero;stroke:#a05a2c;stroke-width:1.20000005;stroke-linecap:square;stroke-linejoin:round;stroke-miterlimit:4;stroke-dasharray:none;stroke-dashoffset:0;stroke-opacity:1"
         d="M 56.651197,68.578391 C 64.692618,52.87375 68.285506,32.79981 70.796304,28.283975 l 1.191033,1.093587 C 67.769466,41.911784 65.173756,59.944586 57.09223,73.92198 Z"
         id="path4238"
         inkscape:connector-curvature="0"
         sodipodi:nodetypes="ccccc" />
      <path
         sodipodi:nodetypes="cscc"
         inkscape:connector-curvature="0"
         id="path4242"
         d="m 55.882387,49.440971 c -0.989093,1.970641 -3.026107,3.782542 -2.893265,-0.422281 0.09063,-2.868666 5.428941,-8.708241 5.810745,-7.64728 0.60878,1.865952 -0.52272,2.736874 -2.91748,8.069561 z"
         style="opacity:1;fill:#a05a2c;fill-opacity:1;fill-rule:nonzero;stroke:none;stroke-width:1.20000005;stroke-linecap:square;stroke-linejoin:round;stroke-miterlimit:4;stroke-dasharray:none;stroke-dashoffset:0;stroke-opacity:1" />
      <path
         sodipodi:nodetypes="sssscs"
         inkscape:connector-curvature="0"
         id="path4247"
         d="m 53.792525,45.336561 c -0.456721,0.677999 -0.674611,2.269249 -1.0838,3.131245 -0.604098,1.272592 -0.517024,3.614404 -0.728936,3.614404 -0.117793,0 -0.989588,-0.481898 -0.944248,-1.9169 0.117697,-3.725535 6.574232,-12.787369 7.44056,-9.984303 -1.54025,-0.187039 -3.294275,3.093153 -4.683576,5.155554 z"
         style="opacity:1;fill:#a05a2c;fill-opacity:1;fill-rule:nonzero;stroke:none;stroke-width:1.20000005;stroke-linecap:square;stroke-linejoin:round;stroke-miterlimit:4;stroke-dasharray:none;stroke-dashoffset:0;stroke-opacity:1" />
      <path
         style="opacity:1;fill:#a05a2c;fill-opacity:1;fill-rule:nonzero;stroke:none;stroke-width:1.20000005;stroke-linecap:square;stroke-linejoin:round;stroke-miterlimit:4;stroke-dasharray:none;stroke-dashoffset:0;stroke-opacity:1"
         d="m 47.917059,39.965307 c 0.289258,-0.549558 0.513027,-1.297947 0.773305,-1.994099 0.384257,-1.027751 2.207036,-6.170097 2.339861,-6.173245 0.07383,-0.0018 -1.006427,4.40682 -1.29961,5.518816 -0.372429,1.412566 -4.320595,10.079859 -5.970352,10.047778 0.325489,-1.50032 2.964082,-5.101073 4.156796,-7.39925 z"
         id="path4249"
         inkscape:connector-curvature="0"
         sodipodi:nodetypes="cssscc" />
    </g>
  </g>
  <g
     inkscape:groupmode="layer"
     id="layer3"
     inkscape:label="metal layer"
     style="display:inline">
    <g
       style="display:inline"
       id="metal"
       transform="matrix(0.33060351,0,0,0.33060351,-76.500473,-10.528745)"
       inkscape:label="#g5528">
      <rect
         inkscape:export-ydpi="56.349998"
         inkscape:export-xdpi="56.349998"
         inkscape:export-filename="G:\apmeneel\Dropbox\Art\Junk Land\metal.png"
         style="fill:#4d4d4d;fill-opacity:1;fill-rule:nonzero;stroke:none"
         id="rect4591"
         width="220.71428"
         height="220.71428"
         x="265.96317"
         y="83.362183"
         ry="27.857143" />
      <rect
         inkscape:export-ydpi="56.349998"
         inkscape:export-xdpi="56.349998"
         inkscape:export-filename="G:\apmeneel\Dropbox\Art\Junk Land\metal.png"
         ry="27.857143"
         y="67.362183"
         x="266.21573"
         height="220.71428"
         width="220.71428"
         id="rect2985-4"
         style="fill:#666666;fill-opacity:1;fill-rule:nonzero;stroke:none" />
      <circle
         inkscape:export-ydpi="56.349998"
         inkscape:export-xdpi="56.349998"
         inkscape:export-filename="G:\apmeneel\Dropbox\Art\Junk Land\metal.png"
         transform="matrix(0.75654599,0,0,0.75654599,119.32313,-167.56624)"
         id="path3817-0"
         style="fill:#ffffff;fill-opacity:1;fill-rule:nonzero;stroke:#666666;stroke-width:9.80000019;stroke-linecap:round;stroke-linejoin:round;stroke-miterlimit:4;stroke-dasharray:none;stroke-dashoffset:0;stroke-opacity:1"
         cx="214.15234"
         cy="329.59805"
         r="61.114227" />
      <path
         inkscape:export-ydpi="56.349998"
         inkscape:export-xdpi="56.349998"
         inkscape:export-filename="G:\apmeneel\Dropbox\Art\Junk Land\metal.png"
         sodipodi:nodetypes="csccsccc"
         inkscape:connector-curvature="0"
         id="rect4419"
         d="m 313.74271,117.67469 c -0.77904,3.83642 -1.22842,7.76434 -1.38045,11.80423 -1.29511,34.41369 22.25558,63.86023 55.35219,72.10614 26.72585,29.30146 42.88438,43.21529 65.378,75.64843 8.60664,5.90237 12.89369,1.60008 18.61389,-4.48201 2.09271,-2.22515 -1.29502,-6.46053 -1.92763,-9.67792 -26.38037,-28.6965 -42.47682,-48.46473 -70.76065,-77.35483 -24.53815,-25.06426 -42.53431,-50.73007 -65.27535,-68.04404 z"
         style="fill:#ffffff;fill-opacity:1;fill-rule:nonzero;stroke:#666666;stroke-width:4.09104586;stroke-miterlimit:4;stroke-dasharray:none;stroke-opacity:1" />
      <path
         inkscape:export-ydpi="56.349998"
         inkscape:export-xdpi="56.349998"
         inkscape:export-filename="G:\apmeneel\Dropbox\Art\Junk Land\metal.png"
         sodipodi:nodetypes="ccssccsscccccccccccccccccccccc"
         inkscape:connector-curvature="0"
         id="rect4400"
         d="m 482.63704,140.8773 c -2.24988,-0.38137 -6.64409,-6.87187 -7.65931,-7.06115 -13.73993,10.42649 -13.16701,12.53331 -30.4351,31.10828 -1.25832,1.35357 -4.32273,0.0499 -3.19994,-1.41799 9.09157,-11.88592 21.92497,-22.67929 31.27536,-32.59017 0.42486,0.82287 -6.33219,-4.90669 -7.52583,-6.49345 -4.41765,0.004 -19.45121,18.23268 -32.73439,31.06999 -1.09822,1.06144 -3.29681,-1.1684 -2.11041,-2.13031 14.35885,-11.64149 25.44162,-24.01735 31.34817,-33.49883 -1.82757,-2.09845 -5.28357,-5.14187 -6.59347,-6.83086 -12.34008,13.72283 -19.75929,23.93806 -36.76076,37.48405 -4.58104,4.2188 -10.74884,10.98146 -10.18767,17.19918 0.0861,0.889 0.48148,1.57879 0.52671,2.48252 -0.32951,1.12288 -1.68682,2.13359 -2.5226,3.18019 -6.01051,6.66812 -21.53636,23.17313 -27.57786,29.82082 -5.30458,5.70793 -11.2666,10.6953 -16.89371,16.04693 -8.59055,7.96664 -34.61561,31.90533 -43.1395,39.95681 -2.29494,2.17944 -2.95771,4.39712 -3.7802,6.86035 -0.98185,2.92485 -2.09411,5.66731 -1.73257,7.86097 0.44363,2.48271 1.06764,4.91344 2.79903,6.32296 1.89878,1.64981 4.80592,2.29802 8.34551,1.60965 2.97016,-0.58493 6.44411,-2.28465 9.65588,-4.85192 2.40846,-1.87188 4.54687,-4.20539 6.54058,-6.52289 7.36323,-8.1929 32.21613,-32.31134 39.8468,-40.31187 6.44658,-6.73194 13.11504,-13.28661 20.01945,-19.51394 4.69768,-4.27823 19.25256,-18.05719 24.07477,-22.11871 1.12354,-1.03616 2.057,-0.70565 2.75539,-0.53109 6.59825,1.2766 12.8846,-4.11387 17.28939,-8.51913 16.63692,-18.2262 24.72414,-23.28704 38.37625,-38.61029 z"
         style="fill:#ffffff;fill-opacity:1;fill-rule:nonzero;stroke:#666666;stroke-width:2.45928383;stroke-miterlimit:4;stroke-dasharray:none;stroke-opacity:1" />
    </g>
  </g>
  <g
     inkscape:groupmode="layer"
     id="layer4"
     inkscape:label="glass layer"
     style="display:inline">
    <g
       style="display:inline"
       id="glass"
       transform="matrix(0.3306035,0,0,0.3306035,-166.72696,-10.33884)"
       inkscape:label="#g4504">
      <rect
         inkscape:export-ydpi="56.41"
         inkscape:export-xdpi="56.41"
         inkscape:export-filename="G:\apmeneel\Dropbox\Art\Junk Land\glass.png"
         ry="27.857143"
         y="82.787766"
         x="538.87762"
         height="220.71428"
         width="220.71428"
         id="rect4593"
         style="fill:#008080;fill-opacity:1;fill-rule:nonzero;stroke:none" />
      <rect
         inkscape:export-ydpi="56.41"
         inkscape:export-xdpi="56.41"
         inkscape:export-filename="G:\apmeneel\Dropbox\Art\Junk Land\glass.png"
         style="fill:#00b8bd;fill-opacity:1;fill-rule:nonzero;stroke:none"
         id="rect4002"
         width="220.71428"
         height="220.71428"
         x="538.87762"
         y="66.787766"
         ry="27.857143" />
      <circle
         inkscape:export-ydpi="56.41"
         inkscape:export-xdpi="56.41"
         inkscape:export-filename="G:\apmeneel\Dropbox\Art\Junk Land\glass.png"
         style="fill:#ffffff;fill-opacity:1;fill-rule:nonzero;stroke:#00b8bd;stroke-width:9.80000019;stroke-linecap:round;stroke-linejoin:round;stroke-miterlimit:4;stroke-dasharray:none;stroke-dashoffset:0;stroke-opacity:1"
         id="path4004"
         transform="matrix(0.75654599,0,0,0.75654599,392.23763,-168.14066)"
         cx="214.15234"
         cy="329.59805"
         r="61.114227" />
      <path
         inkscape:export-ydpi="56.41"
         inkscape:export-xdpi="56.41"
         inkscape:export-filename="G:\apmeneel\Dropbox\Art\Junk Land\glass.png"
         sodipodi:nodetypes="ccccc"
         inkscape:connector-curvature="0"
         id="rect4539"
         d="m 648.98513,180.02854 15.6022,0 c -2.9432,30.08939 -1.5606,60.71951 0,91.3719 l -15.6022,0 c 2.0658,-30.26949 4.1066,-60.54128 0,-91.3719 z"
         style="fill:#ffffff;fill-opacity:1;fill-rule:nonzero;stroke:#00b8bd;stroke-width:3.62039614;stroke-linecap:round;stroke-linejoin:round;stroke-miterlimit:4;stroke-dashoffset:0;stroke-opacity:1" />
      <path
         inkscape:export-ydpi="56.41"
         inkscape:export-xdpi="56.41"
         inkscape:export-filename="G:\apmeneel\Dropbox\Art\Junk Land\glass.png"
         sodipodi:nodetypes="sssss"
         inkscape:connector-curvature="0"
         id="path4534"
         d="m 702.50063,131.61674 c 0.5525,31.63853 -20.467,57.29539 -45.7144,57.29539 -25.24729,0 -45.71432,-25.65203 -45.71432,-57.29539 0,-48.710092 14.01472,-22.44786 45.96682,-22.44786 34.3903,0 44.5999,-26.915072 45.4619,22.44786 z"
         style="fill:#ffffff;fill-opacity:1;fill-rule:nonzero;stroke:#00b8bd;stroke-width:3.62039614;stroke-linecap:round;stroke-linejoin:round;stroke-miterlimit:4;stroke-dashoffset:0;stroke-opacity:1" />
      <path
         inkscape:export-ydpi="56.41"
         inkscape:export-xdpi="56.41"
         inkscape:export-filename="G:\apmeneel\Dropbox\Art\Junk Land\glass.png"
         sodipodi:nodetypes="ccsc"
         inkscape:connector-curvature="0"
         id="path4541"
         d="m 707.03433,274.77754 -100.49613,0 c 16.16248,-11.83642 32.41043,-11.96585 50.24803,-12.22388 13.4899,-0.19514 27.6211,-0.0436 50.2481,12.22388 z"
         style="fill:#ffffff;fill-opacity:1;fill-rule:nonzero;stroke:#00b8bd;stroke-width:2.42649293;stroke-linecap:round;stroke-linejoin:round;stroke-miterlimit:4;stroke-dashoffset:0;stroke-opacity:1" />
      <path
         inkscape:export-ydpi="56.41"
         inkscape:export-xdpi="56.41"
         inkscape:export-filename="G:\apmeneel\Dropbox\Art\Junk Land\glass.png"
         sodipodi:nodetypes="cccc"
         inkscape:connector-curvature="0"
         id="path4554"
         d="m 690.59893,76.772136 -26.8264,49.568034 17.0107,13.80992 14.6287,39.00962"
         style="fill:none;stroke:#00b8bd;stroke-width:2.41359735;stroke-linecap:butt;stroke-linejoin:miter;stroke-miterlimit:4;stroke-dasharray:none;stroke-opacity:1" />
    </g>
  </g>
  <g
     inkscape:groupmode="layer"
     id="layer5"
     inkscape:label="duct_tape layer"
     style="display:inline">
    <g
       style="display:inline"
       id="duct_tape"
       transform="matrix(0.33060356,0,0,0.33060356,-213.7882,-359.47957)"
       inkscape:label="#g4819">
      <rect
         ry="27.857143"
         y="1138.8584"
         x="681.22705"
         height="220.71428"
         width="220.71428"
         id="rect3200"
         style="fill:#333333;fill-opacity:1;fill-rule:nonzero;stroke:none"
         inkscape:export-filename="G:\apmeneel\Dropbox\Art\Junk Land\duct tape.png"
         inkscape:export-xdpi="56.41"
         inkscape:export-ydpi="56.41" />
      <rect
         style="fill:#4d4d4d;fill-opacity:1;fill-rule:nonzero;stroke:none"
         id="rect3202"
         width="220.71428"
         height="220.71428"
         x="681.22705"
         y="1122.8584"
         ry="27.857143"
         inkscape:export-filename="G:\apmeneel\Dropbox\Art\Junk Land\duct tape.png"
         inkscape:export-xdpi="56.41"
         inkscape:export-ydpi="56.41" />
      <circle
         style="fill:#ffffff;fill-opacity:1;fill-rule:nonzero;stroke:#4d4d4d;stroke-width:9.80000019;stroke-linecap:round;stroke-linejoin:round;stroke-miterlimit:4;stroke-dasharray:none;stroke-dashoffset:0;stroke-opacity:1"
         id="path3204"
         transform="matrix(0.75654599,0,0,0.75654599,534.587,887.93001)"
         inkscape:export-filename="G:\apmeneel\Dropbox\Art\Junk Land\duct tape.png"
         inkscape:export-xdpi="56.41"
         inkscape:export-ydpi="56.41"
         cx="214.15234"
         cy="329.59805"
         r="61.114227" />
      <path
         inkscape:export-ydpi="56.41"
         inkscape:export-xdpi="56.41"
         inkscape:export-filename="G:\apmeneel\Dropbox\Art\Junk Land\duct tape.png"
         inkscape:connector-curvature="0"
         id="path6113"
         d="m 764.062,1209.5514 c -40.8914,4.4383 -73.2007,15.8047 -72.1601,25.3925 0.035,0.3271 0.1166,0.6558 0.2276,0.9701 l 4.7672,43.9218 c -0.041,0.3307 -0.052,0.6492 -0.016,0.9762 1.0407,9.5878 35.0363,13.7577 75.9276,9.3195 40.4553,-4.3909 72.4973,-15.5668 72.1685,-25.089 l 0.024,0 -5.0111,-46.169 -0.068,-0.622 -0.048,0.01 c -2.4231,-9.1425 -35.8198,-13.0433 -75.8117,-8.7027 z"
         style="fill:#ffffff;fill-opacity:1;fill-rule:nonzero;stroke:none" />
      <ellipse
         inkscape:export-ydpi="56.41"
         inkscape:export-xdpi="56.41"
         inkscape:export-filename="G:\apmeneel\Dropbox\Art\Junk Land\duct tape.png"
         transform="matrix(0.8468782,-0.091918,0.06363554,0.58630029,388.5699,1024.5786)"
         id="path6122"
         style="fill:#4d4d4d;fill-opacity:1;fill-rule:nonzero;stroke:none"
         cx="412.14224"
         cy="415.461"
         rx="64.649765"
         ry="19.697975" />
      <path
         inkscape:export-ydpi="56.41"
         inkscape:export-xdpi="56.41"
         inkscape:export-filename="G:\apmeneel\Dropbox\Art\Junk Land\duct tape.png"
         sodipodi:nodetypes="ccccc"
         inkscape:connector-curvature="0"
         id="rect6124"
         d="m 844.797,1218.1292 c 13.4261,-1.8701 21.4918,-5.4903 43.1979,23.1597 l 5.5262,50.9152 c -16.989,-19.2232 -28.5346,-25.3649 -43.1979,-23.1597 z"
         style="fill:#ffffff;fill-opacity:1;fill-rule:nonzero;stroke:none" />
      <circle
         inkscape:export-ydpi="56.41"
         inkscape:export-xdpi="56.41"
         inkscape:export-filename="G:\apmeneel\Dropbox\Art\Junk Land\duct tape.png"
         transform="matrix(0.75654599,0,0,0.75654599,534.587,887.93001)"
         id="path5654"
         style="fill:#ffffff;fill-opacity:1;fill-rule:nonzero;stroke:#4d4d4d;stroke-width:9.80000019;stroke-linecap:round;stroke-linejoin:round;stroke-miterlimit:4;stroke-dasharray:none;stroke-dashoffset:0;stroke-opacity:1"
         cx="214.15234"
         cy="329.59805"
         r="61.114227" />
    </g>
  </g>
  <g
     inkscape:groupmode="layer"
     id="layer6"
     inkscape:label="anything"
     style="display:inline">
    <g
       id="anything"
       inkscape:label="#g5988">
      <rect
         inkscape:export-ydpi="56.41"
         inkscape:export-xdpi="56.41"
         inkscape:export-filename="G:\apmeneel\Dropbox\Art\Junk Land\duct tape.png"
         ry="9.209671"
         y="11.741424"
         x="11.427888"
         height="72.968925"
         width="72.968925"
         id="rect4936"
         style="fill:#ffffff;fill-opacity:1;fill-rule:nonzero;stroke:none" />
      <circle
         inkscape:export-ydpi="56.41"
         inkscape:export-xdpi="56.41"
         inkscape:export-filename="G:\apmeneel\Dropbox\Art\Junk Land\duct tape.png"
         transform="matrix(0.2501168,0,0,0.2501168,-37.051835,-65.926738)"
         id="path4938"
         style="fill:#ffffff;fill-opacity:1;fill-rule:nonzero;stroke:#4d4d4d;stroke-width:9.80000019;stroke-linecap:round;stroke-linejoin:round;stroke-miterlimit:4;stroke-dasharray:none;stroke-dashoffset:0;stroke-opacity:1"
         cx="214.15234"
         cy="329.59805"
         r="61.114227" />
      <circle
         style="fill:#ffffff;fill-opacity:1;fill-rule:nonzero;stroke:#5500d4;stroke-width:9.80000019;stroke-linecap:round;stroke-linejoin:round;stroke-miterlimit:4;stroke-dasharray:none;stroke-dashoffset:0;stroke-opacity:1"
         id="path4946"
         transform="matrix(0.2501168,0,0,0.2501168,-37.051835,-65.926738)"
         inkscape:export-filename="G:\apmeneel\Dropbox\Art\Junk Land\duct tape.png"
         inkscape:export-xdpi="56.41"
         inkscape:export-ydpi="56.41"
         cx="214.15234"
         cy="329.59805"
         r="61.114227" />
      <g
         style="font-style:normal;font-weight:normal;font-size:68.80921936px;line-height:125%;font-family:'Archivo Black';-inkscape-font-specification:'Archivo Black';letter-spacing:0px;word-spacing:0px;fill:#5500d4;fill-opacity:1;stroke:none"
         id="text5105">
        <path
           d="m 47.807482,23.230191 c -10.803048,0 -18.784917,5.573547 -18.784917,14.518745 0,0.89452 0.137618,1.720231 0.206427,2.614751 l 12.660897,0 c -0.06881,-0.619283 -0.06881,-1.238566 -0.06881,-1.857849 0,-2.889987 0.756902,-5.779975 4.4726,-5.779975 2.889987,0 4.541408,2.270705 4.541408,4.816646 0,5.573546 -8.945198,8.463534 -8.945198,13.486607 l 0,3.440461 11.766376,0 0,-1.444994 c 0,-3.646889 11.766377,-6.399257 11.766377,-15.757311 0,-8.532343 -7.08735,-14.037081 -17.61516,-14.037081 z m 6.880921,35.436748 -13.624225,0 0,12.729706 13.624225,0 0,-12.729706 z"
           style=""
           id="path4264" />
      </g>
    </g>
  </g>
</svg>
