<?xml version="1.0" encoding="UTF-8" standalone="no"?>
<!-- Created with Inkscape (http://www.inkscape.org/) -->

<svg
   xmlns:dc="http://purl.org/dc/elements/1.1/"
   xmlns:cc="http://creativecommons.org/ns#"
   xmlns:rdf="http://www.w3.org/1999/02/22-rdf-syntax-ns#"
   xmlns:svg="http://www.w3.org/2000/svg"
   xmlns="http://www.w3.org/2000/svg"
   xmlns:sodipodi="http://sodipodi.sourceforge.net/DTD/sodipodi-0.dtd"
   xmlns:inkscape="http://www.inkscape.org/namespaces/inkscape"
   width="90"
   height="90"
   id="svg3803"
   version="1.1"
   inkscape:version="0.48.4 r9939"
   sodipodi:docname="resources.svg">
  <defs
     id="defs3805">
    <inkscape:path-effect
       effect="spiro"
       id="path-effect6296"
       is_visible="true" />
    <inkscape:perspective
       sodipodi:type="inkscape:persp3d"
       inkscape:vp_x="-41.2522 : 175.3937 : 0"
       inkscape:vp_y="0 : 1000 : 0"
       inkscape:vp_z="-1272.743 : -1193.8189 : 1"
       inkscape:persp3d-origin="-1313.9952 : -1369.2126 : 1"
       id="perspective6254" />
    <inkscape:path-effect
       effect="spiro"
       id="path-effect4171"
       is_visible="true" />
  </defs>
  <sodipodi:namedview
     id="base"
     pagecolor="#ffffff"
     bordercolor="#666666"
     borderopacity="1.0"
     inkscape:pageopacity="0.0"
     inkscape:pageshadow="2"
     inkscape:zoom="2.8284271"
     inkscape:cx="69.446623"
     inkscape:cy="29.642807"
     inkscape:document-units="px"
     inkscape:current-layer="layer5"
     showgrid="false"
     inkscape:window-width="1680"
     inkscape:window-height="988"
     inkscape:window-x="1432"
     inkscape:window-y="109"
     inkscape:window-maximized="1"
     showguides="true"
     inkscape:guide-bbox="true"
     units="in"
     inkscape:snap-global="true"
     inkscape:snap-page="true"
     inkscape:snap-bbox="true"
     inkscape:bbox-paths="true"
     inkscape:bbox-nodes="true"
     inkscape:snap-nodes="false"
     inkscape:snap-grids="false"
     inkscape:snap-to-guides="true" />
  <metadata
     id="metadata3808">
    <rdf:RDF>
      <cc:Work
         rdf:about="">
        <dc:format>image/svg+xml</dc:format>
        <dc:type
           rdf:resource="http://purl.org/dc/dcmitype/StillImage" />
        <dc:title />
      </cc:Work>
    </rdf:RDF>
  </metadata>
  <g
     inkscape:label="string layer"
     inkscape:groupmode="layer"
     id="layer1"
     transform="translate(0,-962.35975)"
     style="display:inline">
    <g
       id="string"
       inkscape:label="#g5447"
       transform="matrix(0.33060352,0,0,0.33060352,113.716,951.94843)">
      <rect
         inkscape:export-ydpi="56.406223"
         inkscape:export-xdpi="56.406223"
         inkscape:export-filename="G:\apmeneel\Dropbox\Art\Junk Land\string.png"
         style="fill:#800080;fill-opacity:1;fill-rule:nonzero;stroke:none"
         id="rect4589"
         width="220.71428"
         height="220.71428"
         x="-309.39813"
         y="83.006996"
         ry="27.857143" />
      <rect
         inkscape:export-ydpi="56.406223"
         inkscape:export-xdpi="56.406223"
         inkscape:export-filename="G:\apmeneel\Dropbox\Art\Junk Land\string.png"
         ry="27.857143"
         y="67.006996"
         x="-309.39813"
         height="220.71428"
         width="220.71428"
         id="rect2985-1"
         style="fill:#b142f0;fill-opacity:1;fill-rule:nonzero;stroke:none" />
      <path
         inkscape:export-ydpi="56.406223"
         inkscape:export-xdpi="56.406223"
         inkscape:export-filename="G:\apmeneel\Dropbox\Art\Junk Land\string.png"
         transform="matrix(0.75654599,0,0,0.75654599,-456.0382,-167.92143)"
         d="m 275.26657,329.59805 a 61.114227,61.114227 0 1 1 -122.22845,0 61.114227,61.114227 0 1 1 122.22845,0 z"
         sodipodi:ry="61.114227"
         sodipodi:rx="61.114227"
         sodipodi:cy="329.59805"
         sodipodi:cx="214.15234"
         id="path3817-7"
         style="fill:#ffffff;fill-opacity:1;fill-rule:nonzero;stroke:#b142f0;stroke-width:9.80000019;stroke-linecap:round;stroke-linejoin:round;stroke-miterlimit:4;stroke-opacity:1;stroke-dasharray:none;stroke-dashoffset:0"
         sodipodi:type="arc" />
      <path
         inkscape:export-ydpi="56.406223"
         inkscape:export-xdpi="56.406223"
         inkscape:export-filename="G:\apmeneel\Dropbox\Art\Junk Land\string.png"
         sodipodi:nodetypes="czzc"
         inkscape:connector-curvature="0"
         id="path6720"
         d="m -163.48338,193.22017 c 12.30985,7.08196 22.84974,11.55804 35.54931,21.04692 12.69957,9.48889 30.370708,23.5784 13.93126,30.80677 -16.43945,7.22838 -68.52344,-17.67598 -85.55205,8.86057"
         style="fill:none;stroke:#ffffff;stroke-width:6.25;stroke-linecap:round;stroke-linejoin:miter;stroke-miterlimit:4;stroke-opacity:1;stroke-dasharray:none" />
      <path
         inkscape:export-ydpi="56.406223"
         inkscape:export-xdpi="56.406223"
         inkscape:export-filename="G:\apmeneel\Dropbox\Art\Junk Land\string.png"
         transform="matrix(0.70846797,0,0,0.70846797,-485.77916,-156.77308)"
         d="m 473.76154,467.48386 a 86.873116,86.873116 0 1 1 -173.74623,0 86.873116,86.873116 0 1 1 173.74623,0 z"
         sodipodi:ry="86.873116"
         sodipodi:rx="86.873116"
         sodipodi:cy="467.48386"
         sodipodi:cx="386.88843"
         id="path3806"
         style="fill:#ffffff;fill-opacity:1;fill-rule:nonzero;stroke:#b142f0;stroke-width:8.82185268;stroke-linecap:round;stroke-linejoin:round;stroke-miterlimit:4;stroke-opacity:1;stroke-dasharray:none;stroke-dashoffset:0"
         sodipodi:type="arc" />
      <path
         inkscape:export-ydpi="56.406223"
         inkscape:export-xdpi="56.406223"
         inkscape:export-filename="G:\apmeneel\Dropbox\Art\Junk Land\string.png"
         style="fill:none;stroke:#b142f0;stroke-width:6.25;stroke-linecap:butt;stroke-linejoin:miter;stroke-miterlimit:4;stroke-opacity:1;stroke-dasharray:none"
         d="m -138.75939,142.32562 c -38.95528,25.61489 -86.10704,29.69859 -134.16599,24.45504 l -13.95463,-2.15186"
         id="path3769"
         inkscape:connector-curvature="0"
         sodipodi:nodetypes="ccc" />
      <path
         inkscape:export-ydpi="56.406223"
         inkscape:export-xdpi="56.406223"
         inkscape:export-filename="G:\apmeneel\Dropbox\Art\Junk Land\string.png"
         sodipodi:nodetypes="ccc"
         inkscape:connector-curvature="0"
         id="path3771"
         d="m -137.64292,155.43542 c -38.95528,25.61489 -86.10704,29.69859 -134.166,24.45505 l -13.95463,-2.15187"
         style="fill:none;stroke:#b142f0;stroke-width:6.25;stroke-linecap:butt;stroke-linejoin:miter;stroke-miterlimit:4;stroke-opacity:1;stroke-dasharray:none" />
      <path
         inkscape:export-ydpi="56.406223"
         inkscape:export-xdpi="56.406223"
         inkscape:export-filename="G:\apmeneel\Dropbox\Art\Junk Land\string.png"
         style="fill:none;stroke:#b142f0;stroke-width:6.25;stroke-linecap:butt;stroke-linejoin:miter;stroke-miterlimit:4;stroke-opacity:1;stroke-dasharray:none"
         d="m -274.72086,206.00339 c 14.09654,-44.44011 42.90521,-71.14385 83.52006,-97.36585 l 12.18979,-7.12538"
         id="path3773"
         inkscape:connector-curvature="0"
         sodipodi:nodetypes="ccc" />
      <path
         inkscape:export-ydpi="56.406223"
         inkscape:export-xdpi="56.406223"
         inkscape:export-filename="G:\apmeneel\Dropbox\Art\Junk Land\string.png"
         sodipodi:nodetypes="ccc"
         inkscape:connector-curvature="0"
         id="path3775"
         d="m -265.44549,217.28191 c 14.09654,-44.44013 38.53036,-73.74213 79.1452,-99.96414 l 12.1898,-7.12538"
         style="fill:none;stroke:#b142f0;stroke-width:6.25;stroke-linecap:butt;stroke-linejoin:miter;stroke-miterlimit:4;stroke-opacity:1;stroke-dasharray:none" />
      <path
         inkscape:export-ydpi="56.406223"
         inkscape:export-xdpi="56.406223"
         inkscape:export-filename="G:\apmeneel\Dropbox\Art\Junk Land\string.png"
         style="fill:none;stroke:#b142f0;stroke-width:6.25;stroke-linecap:butt;stroke-linejoin:miter;stroke-miterlimit:4;stroke-opacity:1;stroke-dasharray:none"
         d="m -256.49425,226.44844 c 14.09652,-44.44014 36.51112,-72.72017 77.12595,-98.94219 l 12.1898,-7.12537"
         id="path3777"
         inkscape:connector-curvature="0"
         sodipodi:nodetypes="ccc" />
    </g>
    <rect
       ry="0"
       y="-46.229877"
       x="4091.0374"
       height="350"
       width="350"
       id="rect12439"
       style="fill:#ffffff;stroke:none" />
  </g>
  <g
     inkscape:groupmode="layer"
     id="layer2"
     inkscape:label="wood layer"
     style="display:inline">
    <g
       id="wood"
       transform="matrix(0.33060352,0,0,0.33060352,16.424112,-10.573384)"
       inkscape:label="#g4817">
      <rect
         inkscape:export-ydpi="56.41"
         inkscape:export-xdpi="56.41"
         inkscape:export-filename="G:\apmeneel\Dropbox\Art\Junk Land\wood.png"
         style="fill:#552200;fill-opacity:1;fill-rule:nonzero;stroke:none"
         id="rect4587"
         width="220.71428"
         height="220.71428"
         x="-15.112432"
         y="83.497192"
         ry="27.857143" />
      <rect
         inkscape:export-ydpi="56.41"
         inkscape:export-xdpi="56.41"
         inkscape:export-filename="G:\apmeneel\Dropbox\Art\Junk Land\wood.png"
         ry="27.857143"
         y="67.497192"
         x="-15.112432"
         height="220.71428"
         width="220.71428"
         id="rect2985"
         style="fill:#a05a2c;fill-opacity:1;fill-rule:nonzero;stroke:none" />
      <path
         inkscape:export-ydpi="56.41"
         inkscape:export-xdpi="56.41"
         inkscape:export-filename="G:\apmeneel\Dropbox\Art\Junk Land\wood.png"
         transform="matrix(0.75654599,0,0,0.75654599,-161.75248,-167.43122)"
         d="m 275.26657,329.59805 a 61.114227,61.114227 0 1 1 -122.22845,0 61.114227,61.114227 0 1 1 122.22845,0 z"
         sodipodi:ry="61.114227"
         sodipodi:rx="61.114227"
         sodipodi:cy="329.59805"
         sodipodi:cx="214.15234"
         id="path3817"
         style="fill:#ffffff;fill-opacity:1;fill-rule:nonzero;stroke:#a05a2c;stroke-width:9.80000019;stroke-linecap:round;stroke-linejoin:round;stroke-miterlimit:4;stroke-opacity:1;stroke-dasharray:none;stroke-dashoffset:0"
         sodipodi:type="arc" />
      <path
         inkscape:export-ydpi="56.41"
         inkscape:export-xdpi="56.41"
         inkscape:export-filename="G:\apmeneel\Dropbox\Art\Junk Land\wood.png"
         sodipodi:nodetypes="cccccsscccccsscccscc"
         inkscape:connector-curvature="0"
         id="path4969"
         d="m 143.72326,91.037501 c -10.29858,0 -19.77282,4.12875 -27.25699,11.020709 -0.007,0.004 -0.0112,0.0167 -0.0186,0.0216 -0.24643,0.16424 -0.48483,0.33813 -0.72661,0.51862 l -6.72272,4.35924 c -2.82591,-5.87425 -8.25213,-9.115249 -10.361292,-12.624199 -3.61079,-6.0072 -9.00701,2.2581 -10.96066,2.91762 -4.86735,1.64314 -0.45818,13.273849 1.8915,24.869829 -21.52539,13.14219 -43.43415,29.37561 -65.32453,48.76264 -0.93647,0.69909 -1.79923,1.49357 -2.57106,2.3554 -0.007,0.006 -0.0118,0.0156 -0.0186,0.0216 -0.0189,0.0212 -0.0371,0.0436 -0.0559,0.0648 -9.81682,9.28097 -17.0681599,24.0618 -17.5502899,40.71177 -0.81326,28.08532 19.6325599,50.8681 43.8571099,50.8681 10.74011,0 21.82597,-4.49529 30.33513,-10.28679 34.636732,-25.67274 59.584992,-47.59992 84.878332,-66.59881 0.64973,-0.48504 1.25491,-1.01175 1.82583,-1.57747 13.4957,-8.675 26.90037,-25.83136 22.63653,-44.51499 -6.6282,-29.04397 -21.97998,-51.225069 -43.85713,-50.889719 z"
         style="fill:#a05a2c;fill-opacity:1;fill-rule:nonzero;stroke:#ffffff;stroke-width:5;stroke-linecap:round;stroke-linejoin:round;stroke-miterlimit:4;stroke-opacity:1;stroke-dasharray:none;stroke-dashoffset:0" />
      <path
         inkscape:export-ydpi="56.41"
         inkscape:export-xdpi="56.41"
         inkscape:export-filename="G:\apmeneel\Dropbox\Art\Junk Land\wood.png"
         sodipodi:nodetypes="sssss"
         inkscape:connector-curvature="0"
         id="path4978"
         d="m 93.769088,214.77228 c 5.16764,28.55223 -20.28021,52.5383 -45.29712,52.5383 -25.0169,0 -45.2971099,-23.5222 -45.2971099,-52.5383 0,-29.01609 20.2802099,-52.53828 45.2971099,-52.53828 20.86776,0 40.04553,23.52219 45.29712,52.53828 z"
         style="fill:#a05a2c;fill-opacity:1;fill-rule:nonzero;stroke:#ffffff;stroke-width:3.74999976;stroke-linecap:round;stroke-linejoin:round;stroke-miterlimit:4;stroke-opacity:1;stroke-dashoffset:0" />
      <path
         inkscape:export-ydpi="56.41"
         inkscape:export-xdpi="56.41"
         inkscape:export-filename="G:\apmeneel\Dropbox\Art\Junk Land\wood.png"
         sodipodi:nodetypes="sssss"
         inkscape:connector-curvature="0"
         id="path4982"
         d="m 71.676578,213.077 c 5.04622,20.05322 -12.92748,37.44157 -28.87433,37.44157 -15.94686,0 -28.87434,-16.76317 -28.87434,-37.44157 0,-20.67842 13.0535,-35.44069 28.87434,-37.44158 11.56058,-1.46209 23.19435,14.86983 28.87433,37.44158 z"
         style="fill:#a05a2c;fill-opacity:1;fill-rule:nonzero;stroke:#ffffff;stroke-width:3;stroke-linecap:round;stroke-linejoin:round;stroke-miterlimit:4;stroke-opacity:1;stroke-dasharray:none;stroke-dashoffset:0" />
      <path
         inkscape:export-ydpi="56.41"
         inkscape:export-xdpi="56.41"
         inkscape:export-filename="G:\apmeneel\Dropbox\Art\Junk Land\wood.png"
         sodipodi:nodetypes="sssss"
         inkscape:connector-curvature="0"
         id="path4984"
         d="m 50.527438,210.04695 c -1.37679,10.59302 -5.94525,19.69816 -13.23363,19.27689 -7.72117,-0.44628 -15.7082,-11.30819 -13.23362,-19.27689 3.21479,-10.35234 7.21489,-16.07219 13.23362,-19.27691 10.53409,-5.60894 15.02142,5.52156 13.23363,19.27691 z"
         style="fill:#a05a2c;fill-opacity:1;fill-rule:nonzero;stroke:#ffffff;stroke-width:2.4984796;stroke-linecap:round;stroke-linejoin:round;stroke-miterlimit:4;stroke-opacity:1;stroke-dasharray:none;stroke-dashoffset:0" />
      <path
         inkscape:export-ydpi="56.41"
         inkscape:export-xdpi="56.41"
         inkscape:export-filename="G:\apmeneel\Dropbox\Art\Junk Land\wood.png"
         sodipodi:nodetypes="csc"
         inkscape:connector-curvature="0"
         id="path4992"
         d="m 68.699808,153.27861 c 8.12663,-3.9204 16.76397,-6.84113 24.12807,-12.59741 12.981802,-10.14744 26.990172,-20.44606 44.086662,-33.08224"
         style="fill:none;stroke:#ffffff;stroke-width:3;stroke-linecap:round;stroke-linejoin:miter;stroke-miterlimit:4;stroke-opacity:1;stroke-dasharray:none" />
      <path
         inkscape:export-ydpi="56.41"
         inkscape:export-xdpi="56.41"
         inkscape:export-filename="G:\apmeneel\Dropbox\Art\Junk Land\wood.png"
         style="fill:none;stroke:#ffffff;stroke-width:3;stroke-linecap:round;stroke-linejoin:miter;stroke-miterlimit:4;stroke-opacity:1;stroke-dasharray:none"
         d="m 86.585468,169.57814 c 9.47378,-3.65062 21.481812,-6.33689 30.411622,-14.85443 14.07588,-13.42602 29.73874,-25.82082 45.46838,-36.75233"
         id="path4997"
         inkscape:connector-curvature="0"
         sodipodi:nodetypes="csc" />
      <path
         inkscape:export-ydpi="56.41"
         inkscape:export-xdpi="56.41"
         inkscape:export-filename="G:\apmeneel\Dropbox\Art\Junk Land\wood.png"
         sodipodi:nodetypes="csc"
         inkscape:connector-curvature="0"
         id="path4999"
         d="m 103.61943,203.65897 c 5.76691,-4.76723 13.07301,-8.76824 19.17592,-14.19567 14.91745,-13.26636 29.75282,-27.94835 49.0388,-31.484"
         style="fill:none;stroke:#ffffff;stroke-width:3;stroke-linecap:round;stroke-linejoin:miter;stroke-miterlimit:4;stroke-opacity:1;stroke-dasharray:none" />
      <path
         inkscape:export-ydpi="56.41"
         inkscape:export-xdpi="56.41"
         inkscape:export-filename="G:\apmeneel\Dropbox\Art\Junk Land\wood.png"
         sodipodi:nodetypes="cc"
         inkscape:connector-curvature="0"
         id="path5004"
         d="m 88.164108,122.47506 c 11.49618,-0.54432 5.19631,0.22847 18.750432,-1.21538"
         style="fill:none;stroke:#ffffff;stroke-width:3;stroke-linecap:round;stroke-linejoin:miter;stroke-miterlimit:4;stroke-opacity:1;stroke-dasharray:none" />
    </g>
  </g>
  <g
     inkscape:groupmode="layer"
     id="layer3"
     inkscape:label="metal layer"
     style="display:inline">
    <g
       style="display:inline"
       id="metal"
       transform="matrix(0.33060351,0,0,0.33060351,-76.500473,-10.528745)"
       inkscape:label="#g5528">
      <rect
         inkscape:export-ydpi="56.349998"
         inkscape:export-xdpi="56.349998"
         inkscape:export-filename="G:\apmeneel\Dropbox\Art\Junk Land\metal.png"
         style="fill:#4d4d4d;fill-opacity:1;fill-rule:nonzero;stroke:none"
         id="rect4591"
         width="220.71428"
         height="220.71428"
         x="265.96317"
         y="83.362183"
         ry="27.857143" />
      <rect
         inkscape:export-ydpi="56.349998"
         inkscape:export-xdpi="56.349998"
         inkscape:export-filename="G:\apmeneel\Dropbox\Art\Junk Land\metal.png"
         ry="27.857143"
         y="67.362183"
         x="266.21573"
         height="220.71428"
         width="220.71428"
         id="rect2985-4"
         style="fill:#666666;fill-opacity:1;fill-rule:nonzero;stroke:none" />
      <path
         inkscape:export-ydpi="56.349998"
         inkscape:export-xdpi="56.349998"
         inkscape:export-filename="G:\apmeneel\Dropbox\Art\Junk Land\metal.png"
         transform="matrix(0.75654599,0,0,0.75654599,119.32313,-167.56624)"
         d="m 275.26657,329.59805 a 61.114227,61.114227 0 1 1 -122.22845,0 61.114227,61.114227 0 1 1 122.22845,0 z"
         sodipodi:ry="61.114227"
         sodipodi:rx="61.114227"
         sodipodi:cy="329.59805"
         sodipodi:cx="214.15234"
         id="path3817-0"
         style="fill:#ffffff;fill-opacity:1;fill-rule:nonzero;stroke:#666666;stroke-width:9.80000019;stroke-linecap:round;stroke-linejoin:round;stroke-miterlimit:4;stroke-opacity:1;stroke-dasharray:none;stroke-dashoffset:0"
         sodipodi:type="arc" />
      <path
         inkscape:export-ydpi="56.349998"
         inkscape:export-xdpi="56.349998"
         inkscape:export-filename="G:\apmeneel\Dropbox\Art\Junk Land\metal.png"
         sodipodi:nodetypes="csccsccc"
         inkscape:connector-curvature="0"
         id="rect4419"
         d="m 313.74271,117.67469 c -0.77904,3.83642 -1.22842,7.76434 -1.38045,11.80423 -1.29511,34.41369 22.25558,63.86023 55.35219,72.10614 26.72585,29.30146 42.88438,43.21529 65.378,75.64843 8.60664,5.90237 12.89369,1.60008 18.61389,-4.48201 2.09271,-2.22515 -1.29502,-6.46053 -1.92763,-9.67792 -26.38037,-28.6965 -42.47682,-48.46473 -70.76065,-77.35483 -24.53815,-25.06426 -42.53431,-50.73007 -65.27535,-68.04404 z"
         style="fill:#ffffff;fill-opacity:1;fill-rule:nonzero;stroke:#666666;stroke-width:4.09104586;stroke-miterlimit:4;stroke-opacity:1;stroke-dasharray:none" />
      <path
         inkscape:export-ydpi="56.349998"
         inkscape:export-xdpi="56.349998"
         inkscape:export-filename="G:\apmeneel\Dropbox\Art\Junk Land\metal.png"
         sodipodi:nodetypes="ccssccsscccccccccccccccccccccc"
         inkscape:connector-curvature="0"
         id="rect4400"
         d="m 482.63704,140.8773 c -2.24988,-0.38137 -6.64409,-6.87187 -7.65931,-7.06115 -13.73993,10.42649 -13.16701,12.53331 -30.4351,31.10828 -1.25832,1.35357 -4.32273,0.0499 -3.19994,-1.41799 9.09157,-11.88592 21.92497,-22.67929 31.27536,-32.59017 0.42486,0.82287 -6.33219,-4.90669 -7.52583,-6.49345 -4.41765,0.004 -19.45121,18.23268 -32.73439,31.06999 -1.09822,1.06144 -3.29681,-1.1684 -2.11041,-2.13031 14.35885,-11.64149 25.44162,-24.01735 31.34817,-33.49883 -1.82757,-2.09845 -5.28357,-5.14187 -6.59347,-6.83086 -12.34008,13.72283 -19.75929,23.93806 -36.76076,37.48405 -4.58104,4.2188 -10.74884,10.98146 -10.18767,17.19918 0.0861,0.889 0.48148,1.57879 0.52671,2.48252 -0.32951,1.12288 -1.68682,2.13359 -2.5226,3.18019 -6.01051,6.66812 -21.53636,23.17313 -27.57786,29.82082 -5.30458,5.70793 -11.2666,10.6953 -16.89371,16.04693 -8.59055,7.96664 -34.61561,31.90533 -43.1395,39.95681 -2.29494,2.17944 -2.95771,4.39712 -3.7802,6.86035 -0.98185,2.92485 -2.09411,5.66731 -1.73257,7.86097 0.44363,2.48271 1.06764,4.91344 2.79903,6.32296 1.89878,1.64981 4.80592,2.29802 8.34551,1.60965 2.97016,-0.58493 6.44411,-2.28465 9.65588,-4.85192 2.40846,-1.87188 4.54687,-4.20539 6.54058,-6.52289 7.36323,-8.1929 32.21613,-32.31134 39.8468,-40.31187 6.44658,-6.73194 13.11504,-13.28661 20.01945,-19.51394 4.69768,-4.27823 19.25256,-18.05719 24.07477,-22.11871 1.12354,-1.03616 2.057,-0.70565 2.75539,-0.53109 6.59825,1.2766 12.8846,-4.11387 17.28939,-8.51913 16.63692,-18.2262 24.72414,-23.28704 38.37625,-38.61029 z"
         style="fill:#ffffff;fill-opacity:1;fill-rule:nonzero;stroke:#666666;stroke-width:2.45928383;stroke-miterlimit:4;stroke-opacity:1;stroke-dasharray:none" />
    </g>
  </g>
  <g
     inkscape:groupmode="layer"
     id="layer4"
     inkscape:label="glass layer"
     style="display:inline">
    <g
       style="display:inline"
       id="glass"
       transform="matrix(0.3306035,0,0,0.3306035,-166.72696,-10.33884)"
       inkscape:label="#g4504">
      <rect
         inkscape:export-ydpi="56.41"
         inkscape:export-xdpi="56.41"
         inkscape:export-filename="G:\apmeneel\Dropbox\Art\Junk Land\glass.png"
         ry="27.857143"
         y="82.787766"
         x="538.87762"
         height="220.71428"
         width="220.71428"
         id="rect4593"
         style="fill:#008080;fill-opacity:1;fill-rule:nonzero;stroke:none" />
      <rect
         inkscape:export-ydpi="56.41"
         inkscape:export-xdpi="56.41"
         inkscape:export-filename="G:\apmeneel\Dropbox\Art\Junk Land\glass.png"
         style="fill:#00b8bd;fill-opacity:1;fill-rule:nonzero;stroke:none"
         id="rect4002"
         width="220.71428"
         height="220.71428"
         x="538.87762"
         y="66.787766"
         ry="27.857143" />
      <path
         inkscape:export-ydpi="56.41"
         inkscape:export-xdpi="56.41"
         inkscape:export-filename="G:\apmeneel\Dropbox\Art\Junk Land\glass.png"
         sodipodi:type="arc"
         style="fill:#ffffff;fill-opacity:1;fill-rule:nonzero;stroke:#00b8bd;stroke-width:9.80000019;stroke-linecap:round;stroke-linejoin:round;stroke-miterlimit:4;stroke-opacity:1;stroke-dasharray:none;stroke-dashoffset:0"
         id="path4004"
         sodipodi:cx="214.15234"
         sodipodi:cy="329.59805"
         sodipodi:rx="61.114227"
         sodipodi:ry="61.114227"
         d="m 275.26657,329.59805 a 61.114227,61.114227 0 1 1 -122.22845,0 61.114227,61.114227 0 1 1 122.22845,0 z"
         transform="matrix(0.75654599,0,0,0.75654599,392.23763,-168.14066)" />
      <path
         inkscape:export-ydpi="56.41"
         inkscape:export-xdpi="56.41"
         inkscape:export-filename="G:\apmeneel\Dropbox\Art\Junk Land\glass.png"
         sodipodi:nodetypes="ccccc"
         inkscape:connector-curvature="0"
         id="rect4539"
         d="m 648.98513,180.02854 15.6022,0 c -2.9432,30.08939 -1.5606,60.71951 0,91.3719 l -15.6022,0 c 2.0658,-30.26949 4.1066,-60.54128 0,-91.3719 z"
         style="fill:#ffffff;fill-opacity:1;fill-rule:nonzero;stroke:#00b8bd;stroke-width:3.62039614;stroke-linecap:round;stroke-linejoin:round;stroke-miterlimit:4;stroke-opacity:1;stroke-dashoffset:0" />
      <path
         inkscape:export-ydpi="56.41"
         inkscape:export-xdpi="56.41"
         inkscape:export-filename="G:\apmeneel\Dropbox\Art\Junk Land\glass.png"
         sodipodi:nodetypes="sssss"
         inkscape:connector-curvature="0"
         id="path4534"
         d="m 702.50063,131.61674 c 0.5525,31.63853 -20.467,57.29539 -45.7144,57.29539 -25.24729,0 -45.71432,-25.65203 -45.71432,-57.29539 0,-48.710092 14.01472,-22.44786 45.96682,-22.44786 34.3903,0 44.5999,-26.915072 45.4619,22.44786 z"
         style="fill:#ffffff;fill-opacity:1;fill-rule:nonzero;stroke:#00b8bd;stroke-width:3.62039614;stroke-linecap:round;stroke-linejoin:round;stroke-miterlimit:4;stroke-opacity:1;stroke-dashoffset:0" />
      <path
         inkscape:export-ydpi="56.41"
         inkscape:export-xdpi="56.41"
         inkscape:export-filename="G:\apmeneel\Dropbox\Art\Junk Land\glass.png"
         sodipodi:nodetypes="ccsc"
         inkscape:connector-curvature="0"
         id="path4541"
         d="m 707.03433,274.77754 -100.49613,0 c 16.16248,-11.83642 32.41043,-11.96585 50.24803,-12.22388 13.4899,-0.19514 27.6211,-0.0436 50.2481,12.22388 z"
         style="fill:#ffffff;fill-opacity:1;fill-rule:nonzero;stroke:#00b8bd;stroke-width:2.42649293;stroke-linecap:round;stroke-linejoin:round;stroke-miterlimit:4;stroke-opacity:1;stroke-dashoffset:0" />
      <path
         inkscape:export-ydpi="56.41"
         inkscape:export-xdpi="56.41"
         inkscape:export-filename="G:\apmeneel\Dropbox\Art\Junk Land\glass.png"
         sodipodi:nodetypes="cccc"
         inkscape:connector-curvature="0"
         id="path4554"
         d="m 690.59893,76.772136 -26.8264,49.568034 17.0107,13.80992 14.6287,39.00962"
         style="fill:none;stroke:#00b8bd;stroke-width:2.41359735;stroke-linecap:butt;stroke-linejoin:miter;stroke-miterlimit:4;stroke-opacity:1;stroke-dasharray:none" />
    </g>
  </g>
  <g
     inkscape:groupmode="layer"
     id="layer5"
     inkscape:label="duct_tape layer"
     style="display:inline">
    <g
       style="display:inline"
       id="duct_tape"
       transform="matrix(0.33060356,0,0,0.33060356,-213.7882,-359.47957)"
       inkscape:label="#g4819">
      <rect
         ry="27.857143"
         y="1138.8584"
         x="681.22705"
         height="220.71428"
         width="220.71428"
         id="rect3200"
         style="fill:#333333;fill-opacity:1;fill-rule:nonzero;stroke:none"
         inkscape:export-filename="G:\apmeneel\Dropbox\Art\Junk Land\duct tape.png"
         inkscape:export-xdpi="56.41"
         inkscape:export-ydpi="56.41" />
      <rect
         style="fill:#4d4d4d;fill-opacity:1;fill-rule:nonzero;stroke:none"
         id="rect3202"
         width="220.71428"
         height="220.71428"
         x="681.22705"
         y="1122.8584"
         ry="27.857143"
         inkscape:export-filename="G:\apmeneel\Dropbox\Art\Junk Land\duct tape.png"
         inkscape:export-xdpi="56.41"
         inkscape:export-ydpi="56.41" />
      <path
         sodipodi:type="arc"
         style="fill:#ffffff;fill-opacity:1;fill-rule:nonzero;stroke:#4d4d4d;stroke-width:9.80000019;stroke-linecap:round;stroke-linejoin:round;stroke-miterlimit:4;stroke-opacity:1;stroke-dasharray:none;stroke-dashoffset:0"
         id="path3204"
         sodipodi:cx="214.15234"
         sodipodi:cy="329.59805"
         sodipodi:rx="61.114227"
         sodipodi:ry="61.114227"
         d="m 275.26657,329.59805 a 61.114227,61.114227 0 1 1 -122.22845,0 61.114227,61.114227 0 1 1 122.22845,0 z"
         transform="matrix(0.75654599,0,0,0.75654599,534.587,887.93001)"
         inkscape:export-filename="G:\apmeneel\Dropbox\Art\Junk Land\duct tape.png"
         inkscape:export-xdpi="56.41"
         inkscape:export-ydpi="56.41" />
      <path
         inkscape:export-ydpi="56.41"
         inkscape:export-xdpi="56.41"
         inkscape:export-filename="G:\apmeneel\Dropbox\Art\Junk Land\duct tape.png"
         inkscape:connector-curvature="0"
         id="path6113"
         d="m 764.062,1209.5514 c -40.8914,4.4383 -73.2007,15.8047 -72.1601,25.3925 0.035,0.3271 0.1166,0.6558 0.2276,0.9701 l 4.7672,43.9218 c -0.041,0.3307 -0.052,0.6492 -0.016,0.9762 1.0407,9.5878 35.0363,13.7577 75.9276,9.3195 40.4553,-4.3909 72.4973,-15.5668 72.1685,-25.089 l 0.024,0 -5.0111,-46.169 -0.068,-0.622 -0.048,0.01 c -2.4231,-9.1425 -35.8198,-13.0433 -75.8117,-8.7027 z"
         style="fill:#ffffff;fill-opacity:1;fill-rule:nonzero;stroke:none" />
      <path
         inkscape:export-ydpi="56.41"
         inkscape:export-xdpi="56.41"
         inkscape:export-filename="G:\apmeneel\Dropbox\Art\Junk Land\duct tape.png"
         transform="matrix(0.8468782,-0.091918,0.06363554,0.58630029,388.5699,1024.5786)"
         d="m 476.79201,415.461 a 64.649765,19.697975 0 1 1 -129.29953,0 64.649765,19.697975 0 1 1 129.29953,0 z"
         sodipodi:ry="19.697975"
         sodipodi:rx="64.649765"
         sodipodi:cy="415.461"
         sodipodi:cx="412.14224"
         id="path6122"
         style="fill:#4d4d4d;fill-opacity:1;fill-rule:nonzero;stroke:none"
         sodipodi:type="arc" />
      <path
         inkscape:export-ydpi="56.41"
         inkscape:export-xdpi="56.41"
         inkscape:export-filename="G:\apmeneel\Dropbox\Art\Junk Land\duct tape.png"
         sodipodi:nodetypes="ccccc"
         inkscape:connector-curvature="0"
         id="rect6124"
         d="m 844.797,1218.1292 c 13.4261,-1.8701 21.4918,-5.4903 43.1979,23.1597 l 5.5262,50.9152 c -16.989,-19.2232 -28.5346,-25.3649 -43.1979,-23.1597 z"
         style="fill:#ffffff;fill-opacity:1;fill-rule:nonzero;stroke:none" />
      <path
         inkscape:export-ydpi="56.41"
         inkscape:export-xdpi="56.41"
         inkscape:export-filename="G:\apmeneel\Dropbox\Art\Junk Land\duct tape.png"
         transform="matrix(0.75654599,0,0,0.75654599,534.587,887.93001)"
         d="m 275.26657,329.59805 a 61.114227,61.114227 0 1 1 -122.22845,0 61.114227,61.114227 0 1 1 122.22845,0 z"
         sodipodi:ry="61.114227"
         sodipodi:rx="61.114227"
         sodipodi:cy="329.59805"
         sodipodi:cx="214.15234"
         id="path5654"
         style="fill:#ffffff;fill-opacity:1;fill-rule:nonzero;stroke:#4d4d4d;stroke-width:9.80000019;stroke-linecap:round;stroke-linejoin:round;stroke-miterlimit:4;stroke-opacity:1;stroke-dasharray:none;stroke-dashoffset:0"
         sodipodi:type="arc" />
    </g>
  </g>
  <g
     inkscape:groupmode="layer"
     id="layer6"
     inkscape:label="anything">
    <g
       id="anything"
       inkscape:label="#g5988">
      <rect
         inkscape:export-ydpi="56.41"
         inkscape:export-xdpi="56.41"
         inkscape:export-filename="G:\apmeneel\Dropbox\Art\Junk Land\duct tape.png"
         ry="9.209671"
         y="11.741424"
         x="11.427888"
         height="72.968925"
         width="72.968925"
         id="rect4936"
         style="fill:#ffffff;fill-opacity:1;fill-rule:nonzero;stroke:none" />
      <path
         inkscape:export-ydpi="56.41"
         inkscape:export-xdpi="56.41"
         inkscape:export-filename="G:\apmeneel\Dropbox\Art\Junk Land\duct tape.png"
         transform="matrix(0.2501168,0,0,0.2501168,-37.051835,-65.926738)"
         d="m 275.26657,329.59805 a 61.114227,61.114227 0 1 1 -122.22845,0 61.114227,61.114227 0 1 1 122.22845,0 z"
         sodipodi:ry="61.114227"
         sodipodi:rx="61.114227"
         sodipodi:cy="329.59805"
         sodipodi:cx="214.15234"
         id="path4938"
         style="fill:#ffffff;fill-opacity:1;fill-rule:nonzero;stroke:#4d4d4d;stroke-width:9.80000019;stroke-linecap:round;stroke-linejoin:round;stroke-miterlimit:4;stroke-opacity:1;stroke-dasharray:none;stroke-dashoffset:0"
         sodipodi:type="arc" />
      <path
         sodipodi:type="arc"
         style="fill:#ffffff;fill-opacity:1;fill-rule:nonzero;stroke:#5500d4;stroke-width:9.80000019000000040;stroke-linecap:round;stroke-linejoin:round;stroke-miterlimit:4;stroke-opacity:1;stroke-dasharray:none;stroke-dashoffset:0"
         id="path4946"
         sodipodi:cx="214.15234"
         sodipodi:cy="329.59805"
         sodipodi:rx="61.114227"
         sodipodi:ry="61.114227"
         d="m 275.26657,329.59805 a 61.114227,61.114227 0 1 1 -122.22845,0 61.114227,61.114227 0 1 1 122.22845,0 z"
         transform="matrix(0.2501168,0,0,0.2501168,-37.051835,-65.926738)"
         inkscape:export-filename="G:\apmeneel\Dropbox\Art\Junk Land\duct tape.png"
         inkscape:export-xdpi="56.41"
         inkscape:export-ydpi="56.41" />
      <text
         sodipodi:linespacing="125%"
         id="text5105"
         y="71.396645"
         x="26.476624"
         style="font-size:68.80921936000000000px;font-style:normal;font-weight:normal;line-height:125%;letter-spacing:0px;word-spacing:0px;fill:#5500d4;fill-opacity:1;stroke:none;font-family:Archivo Black;-inkscape-font-specification:Archivo Black"
         xml:space="preserve"><tspan
           y="71.396645"
           x="26.476624"
           id="tspan5107"
           sodipodi:role="line">?</tspan></text>
    </g>
  </g>
</svg>
