<?xml version="1.0" encoding="UTF-8" standalone="no"?>
<!-- Created with Inkscape (http://www.inkscape.org/) -->

<svg
   xmlns:dc="http://purl.org/dc/elements/1.1/"
   xmlns:cc="http://creativecommons.org/ns#"
   xmlns:rdf="http://www.w3.org/1999/02/22-rdf-syntax-ns#"
   xmlns:svg="http://www.w3.org/2000/svg"
   xmlns="http://www.w3.org/2000/svg"
   xmlns:sodipodi="http://sodipodi.sourceforge.net/DTD/sodipodi-0.dtd"
   xmlns:inkscape="http://www.inkscape.org/namespaces/inkscape"
   width="600"
   height="825"
   id="svg4730"
   version="1.1"
   inkscape:version="0.48.3.1 r9886"
   sodipodi:docname="resource cards.svg"
   inkscape:export-filename="G:\apmeneel\workspaces\ruby-workspace\junk-land\_output\resource_string_1.png"
   inkscape:export-xdpi="90"
   inkscape:export-ydpi="90">
  <defs
     id="defs4732" />
  <sodipodi:namedview
     id="base"
     pagecolor="#ffffff"
     bordercolor="#666666"
     borderopacity="1.0"
     inkscape:pageopacity="0.0"
     inkscape:pageshadow="2"
     inkscape:zoom="0.7"
     inkscape:cx="-46.643649"
     inkscape:cy="490.61977"
     inkscape:document-units="px"
     inkscape:current-layer="layer1"
     showgrid="false"
     inkscape:snap-page="true"
     showguides="true"
     inkscape:guide-bbox="true"
     inkscape:window-width="1920"
     inkscape:window-height="1018"
     inkscape:window-x="-8"
     inkscape:window-y="-8"
     inkscape:window-maximized="1">
    <sodipodi:guide
       orientation="0,1"
       position="211.25,788.03572"
       id="guide4749" />
    <sodipodi:guide
       orientation="0,1"
       position="218.03571,750"
       id="guide4751" />
    <sodipodi:guide
       orientation="1,0"
       position="934.28571,352.85714"
       id="guide4753" />
    <sodipodi:guide
       orientation="1,0"
       position="37.857143,721.78572"
       id="guide4755" />
    <sodipodi:guide
       orientation="1,0"
       position="525,701.78572"
       id="guide4757" />
    <sodipodi:guide
       orientation="1,0"
       position="562.5,700.35714"
       id="guide4759" />
    <sodipodi:guide
       orientation="0,1"
       position="476.78572,75"
       id="guide4761" />
    <sodipodi:guide
       orientation="0,1"
       position="490,37.857143"
       id="guide4763" />
    <sodipodi:guide
       orientation="1,0"
       position="75.714286,542.85714"
       id="guide6151" />
  </sodipodi:namedview>
  <metadata
     id="metadata4735">
    <rdf:RDF>
      <cc:Work
         rdf:about="">
        <dc:format>image/svg+xml</dc:format>
        <dc:type
           rdf:resource="http://purl.org/dc/dcmitype/StillImage" />
        <dc:title></dc:title>
      </cc:Work>
    </rdf:RDF>
  </metadata>
  <g
     inkscape:label="string"
     inkscape:groupmode="layer"
     id="layer1"
     transform="translate(0,-227.36218)"
     style="display:inline">
    <rect
       inkscape:export-ydpi="56.406223"
       inkscape:export-xdpi="56.406223"
       inkscape:export-filename="G:\apmeneel\Dropbox\Art\Junk Land\string.png"
       ry="0"
       y="227.36218"
       x="0"
       height="825"
       width="600"
       id="rect6042"
       style="fill:#b142f0;fill-opacity:1;fill-rule:nonzero;stroke:none" />
    <g
       id="g4915"
       transform="matrix(1.8119048,0,0,1.8119048,-167.56792,-371.10871)">
      <g
         transform="translate(657.14286,-44.285714)"
         id="g4906">
        <path
           inkscape:export-ydpi="56.406223"
           inkscape:export-xdpi="56.406223"
           inkscape:export-filename="G:\apmeneel\Dropbox\Art\Junk Land\string.png"
           sodipodi:nodetypes="czzc"
           inkscape:connector-curvature="0"
           id="path6046"
           d="m -368.24278,607.6626 c 12.30985,7.08196 22.84974,11.55804 35.54931,21.04692 12.69957,9.48889 30.37071,23.5784 13.93126,30.80677 -16.43945,7.22838 -68.52344,-17.67598 -85.55205,8.86057"
           style="fill:none;stroke:#ffffff;stroke-width:6.25;stroke-linecap:round;stroke-linejoin:miter;stroke-miterlimit:4;stroke-opacity:1;stroke-dasharray:none" />
        <path
           inkscape:export-ydpi="56.406223"
           inkscape:export-xdpi="56.406223"
           inkscape:export-filename="G:\apmeneel\Dropbox\Art\Junk Land\string.png"
           transform="matrix(0.70846797,0,0,0.70846797,-690.53856,257.66935)"
           d="m 473.76154,467.48386 a 86.873116,86.873116 0 1 1 -173.74623,0 86.873116,86.873116 0 1 1 173.74623,0 z"
           sodipodi:ry="86.873116"
           sodipodi:rx="86.873116"
           sodipodi:cy="467.48386"
           sodipodi:cx="386.88843"
           id="path6048"
           style="fill:#ffffff;fill-opacity:1;fill-rule:nonzero;stroke:#b142f0;stroke-width:8.82185268;stroke-linecap:round;stroke-linejoin:round;stroke-miterlimit:4;stroke-opacity:1;stroke-dasharray:none;stroke-dashoffset:0"
           sodipodi:type="arc" />
        <path
           inkscape:export-ydpi="56.406223"
           inkscape:export-xdpi="56.406223"
           inkscape:export-filename="G:\apmeneel\Dropbox\Art\Junk Land\string.png"
           style="fill:none;stroke:#b142f0;stroke-width:6.25;stroke-linecap:butt;stroke-linejoin:miter;stroke-miterlimit:4;stroke-opacity:1;stroke-dasharray:none"
           d="m -343.51879,556.76805 c -38.95528,25.61489 -86.10704,29.69859 -134.16599,24.45504 l -13.95463,-2.15186"
           id="path6050"
           inkscape:connector-curvature="0"
           sodipodi:nodetypes="ccc" />
        <path
           inkscape:export-ydpi="56.406223"
           inkscape:export-xdpi="56.406223"
           inkscape:export-filename="G:\apmeneel\Dropbox\Art\Junk Land\string.png"
           sodipodi:nodetypes="ccc"
           inkscape:connector-curvature="0"
           id="path6052"
           d="m -342.40232,569.87785 c -38.95528,25.61489 -86.10704,29.69859 -134.166,24.45505 l -13.95463,-2.15187"
           style="fill:none;stroke:#b142f0;stroke-width:6.25;stroke-linecap:butt;stroke-linejoin:miter;stroke-miterlimit:4;stroke-opacity:1;stroke-dasharray:none" />
        <path
           inkscape:export-ydpi="56.406223"
           inkscape:export-xdpi="56.406223"
           inkscape:export-filename="G:\apmeneel\Dropbox\Art\Junk Land\string.png"
           style="fill:none;stroke:#b142f0;stroke-width:6.25;stroke-linecap:butt;stroke-linejoin:miter;stroke-miterlimit:4;stroke-opacity:1;stroke-dasharray:none"
           d="m -479.48026,620.44582 c 14.09654,-44.44011 42.90521,-71.14385 83.52006,-97.36585 l 12.18979,-7.12538"
           id="path6054"
           inkscape:connector-curvature="0"
           sodipodi:nodetypes="ccc" />
        <path
           inkscape:export-ydpi="56.406223"
           inkscape:export-xdpi="56.406223"
           inkscape:export-filename="G:\apmeneel\Dropbox\Art\Junk Land\string.png"
           sodipodi:nodetypes="ccc"
           inkscape:connector-curvature="0"
           id="path6056"
           d="m -470.20489,631.72434 c 14.09654,-44.44013 38.53036,-73.74213 79.1452,-99.96414 l 12.1898,-7.12538"
           style="fill:none;stroke:#b142f0;stroke-width:6.25;stroke-linecap:butt;stroke-linejoin:miter;stroke-miterlimit:4;stroke-opacity:1;stroke-dasharray:none" />
        <path
           inkscape:export-ydpi="56.406223"
           inkscape:export-xdpi="56.406223"
           inkscape:export-filename="G:\apmeneel\Dropbox\Art\Junk Land\string.png"
           style="fill:none;stroke:#b142f0;stroke-width:6.25;stroke-linecap:butt;stroke-linejoin:miter;stroke-miterlimit:4;stroke-opacity:1;stroke-dasharray:none"
           d="m -461.25365,640.89087 c 14.09652,-44.44014 36.51112,-72.72017 77.12595,-98.94219 l 12.1898,-7.12537"
           id="path6058"
           inkscape:connector-curvature="0"
           sodipodi:nodetypes="ccc" />
      </g>
    </g>
    <text
       xml:space="preserve"
       style="font-size:241.98881531px;font-style:normal;font-variant:normal;font-weight:bold;font-stretch:normal;text-align:start;line-height:125%;letter-spacing:0px;word-spacing:0px;writing-mode:lr-tb;text-anchor:start;fill:#ffffff;fill-opacity:1;stroke:none;font-family:Action Man;-inkscape-font-specification:Action Man Bold"
       x="53.928574"
       y="466.55969"
       id="text4925"
       sodipodi:linespacing="125%"><tspan
         sodipodi:role="line"
         id="tspan4927"
         x="53.928574"
         y="466.55969">1</tspan></text>
    <text
       sodipodi:linespacing="125%"
       id="text5713"
       y="-815.98883"
       x="-525"
       style="font-size:241.98881531px;font-style:normal;font-variant:normal;font-weight:bold;font-stretch:normal;text-align:start;line-height:125%;letter-spacing:0px;word-spacing:0px;writing-mode:lr-tb;text-anchor:start;fill:#ffffff;fill-opacity:1;stroke:none;font-family:Action Man;-inkscape-font-specification:Action Man Bold"
       xml:space="preserve"
       transform="scale(-1,-1)"><tspan
         y="-815.98883"
         x="-525"
         id="tspan5715"
         sodipodi:role="line">1</tspan></text>
  </g>
  <g
     inkscape:groupmode="layer"
     id="layer2"
     inkscape:label="wood"
     style="display:none">
    <rect
       inkscape:export-ydpi="56.41"
       inkscape:export-xdpi="56.41"
       inkscape:export-filename="G:\apmeneel\Dropbox\Art\Junk Land\wood.png"
       ry="0"
       y="0"
       x="0"
       height="825"
       width="600"
       id="rect6022"
       style="fill:#a05a2c;fill-opacity:1;fill-rule:nonzero;stroke:none" />
    <g
       id="g5816"
       transform="matrix(1.8981552,0,0,1.8981552,791.35204,-656.14665)">
      <path
         style="fill:#a05a2c;fill-opacity:1;fill-rule:nonzero;stroke:#ffffff;stroke-width:5;stroke-linecap:round;stroke-linejoin:round;stroke-miterlimit:4;stroke-opacity:1;stroke-dasharray:none;stroke-dashoffset:0"
         d="m -212.95003,474.46888 c -10.29858,0 -19.77282,4.12875 -27.25699,11.02071 -0.007,0.004 -0.0112,0.0167 -0.0186,0.0216 -0.24643,0.16424 -0.48483,0.33813 -0.72661,0.51862 l -6.72272,4.35924 c -2.82591,-5.87425 -8.25213,-9.11525 -10.36129,-12.6242 -3.61079,-6.0072 -9.00701,2.2581 -10.96066,2.91762 -4.86735,1.64314 -0.45818,13.27385 1.8915,24.86983 -21.52539,13.14219 -43.43415,29.37561 -65.32453,48.76264 -0.93647,0.69909 -1.79923,1.49357 -2.57106,2.3554 -0.007,0.006 -0.0118,0.0156 -0.0186,0.0216 -0.0189,0.0212 -0.0371,0.0436 -0.0559,0.0648 -9.81682,9.28097 -17.06816,24.0618 -17.55029,40.71177 -0.81326,28.08532 19.63256,50.8681 43.85711,50.8681 10.74011,0 21.82597,-4.49529 30.33513,-10.28679 34.63673,-25.67274 59.58499,-47.59992 84.87833,-66.59881 0.64973,-0.48504 1.25491,-1.01175 1.82583,-1.57747 13.4957,-8.675 26.90037,-25.83136 22.63653,-44.51499 -6.6282,-29.04397 -21.97998,-51.22507 -43.85713,-50.88972 z"
         id="path6026"
         inkscape:connector-curvature="0"
         sodipodi:nodetypes="cccccsscccccsscccscc"
         inkscape:export-filename="G:\apmeneel\Dropbox\Art\Junk Land\wood.png"
         inkscape:export-xdpi="56.41"
         inkscape:export-ydpi="56.41" />
      <path
         style="fill:#a05a2c;fill-opacity:1;fill-rule:nonzero;stroke:#ffffff;stroke-width:3.74999976;stroke-linecap:round;stroke-linejoin:round;stroke-miterlimit:4;stroke-opacity:1;stroke-dashoffset:0"
         d="m -262.9042,598.20366 c 5.16764,28.55223 -20.28021,52.5383 -45.29712,52.5383 -25.0169,0 -45.29711,-23.5222 -45.29711,-52.5383 0,-29.01609 20.28021,-52.53828 45.29711,-52.53828 20.86776,0 40.04553,23.52219 45.29712,52.53828 z"
         id="path6028"
         inkscape:connector-curvature="0"
         sodipodi:nodetypes="sssss"
         inkscape:export-filename="G:\apmeneel\Dropbox\Art\Junk Land\wood.png"
         inkscape:export-xdpi="56.41"
         inkscape:export-ydpi="56.41" />
      <path
         style="fill:#a05a2c;fill-opacity:1;fill-rule:nonzero;stroke:#ffffff;stroke-width:3;stroke-linecap:round;stroke-linejoin:round;stroke-miterlimit:4;stroke-opacity:1;stroke-dasharray:none;stroke-dashoffset:0"
         d="m -284.99671,596.50838 c 5.04622,20.05322 -12.92748,37.44157 -28.87433,37.44157 -15.94686,0 -28.87434,-16.76317 -28.87434,-37.44157 0,-20.67842 13.0535,-35.44069 28.87434,-37.44158 11.56058,-1.46209 23.19435,14.86983 28.87433,37.44158 z"
         id="path6030"
         inkscape:connector-curvature="0"
         sodipodi:nodetypes="sssss"
         inkscape:export-filename="G:\apmeneel\Dropbox\Art\Junk Land\wood.png"
         inkscape:export-xdpi="56.41"
         inkscape:export-ydpi="56.41" />
      <path
         style="fill:#a05a2c;fill-opacity:1;fill-rule:nonzero;stroke:#ffffff;stroke-width:2.4984796;stroke-linecap:round;stroke-linejoin:round;stroke-miterlimit:4;stroke-opacity:1;stroke-dasharray:none;stroke-dashoffset:0"
         d="m -306.14585,593.47833 c -1.37679,10.59302 -5.94525,19.69816 -13.23363,19.27689 -7.72117,-0.44628 -15.7082,-11.30819 -13.23362,-19.27689 3.21479,-10.35234 7.21489,-16.07219 13.23362,-19.27691 10.53409,-5.60894 15.02142,5.52156 13.23363,19.27691 z"
         id="path6032"
         inkscape:connector-curvature="0"
         sodipodi:nodetypes="sssss"
         inkscape:export-filename="G:\apmeneel\Dropbox\Art\Junk Land\wood.png"
         inkscape:export-xdpi="56.41"
         inkscape:export-ydpi="56.41" />
      <path
         style="fill:none;stroke:#ffffff;stroke-width:3;stroke-linecap:round;stroke-linejoin:miter;stroke-miterlimit:4;stroke-opacity:1;stroke-dasharray:none"
         d="m -287.97348,536.70999 c 8.12663,-3.9204 16.76397,-6.84113 24.12807,-12.59741 12.9818,-10.14744 26.99017,-20.44606 44.08666,-33.08224"
         id="path6034"
         inkscape:connector-curvature="0"
         sodipodi:nodetypes="csc"
         inkscape:export-filename="G:\apmeneel\Dropbox\Art\Junk Land\wood.png"
         inkscape:export-xdpi="56.41"
         inkscape:export-ydpi="56.41" />
      <path
         sodipodi:nodetypes="csc"
         inkscape:connector-curvature="0"
         id="path6036"
         d="m -270.08782,553.00952 c 9.47378,-3.65062 21.48181,-6.33689 30.41162,-14.85443 14.07588,-13.42602 29.73874,-25.82082 45.46838,-36.75233"
         style="fill:none;stroke:#ffffff;stroke-width:3;stroke-linecap:round;stroke-linejoin:miter;stroke-miterlimit:4;stroke-opacity:1;stroke-dasharray:none"
         inkscape:export-filename="G:\apmeneel\Dropbox\Art\Junk Land\wood.png"
         inkscape:export-xdpi="56.41"
         inkscape:export-ydpi="56.41" />
      <path
         style="fill:none;stroke:#ffffff;stroke-width:3;stroke-linecap:round;stroke-linejoin:miter;stroke-miterlimit:4;stroke-opacity:1;stroke-dasharray:none"
         d="m -253.05386,587.09035 c 5.76691,-4.76723 13.07301,-8.76824 19.17592,-14.19567 14.91745,-13.26636 29.75282,-27.94835 49.0388,-31.484"
         id="path6038"
         inkscape:connector-curvature="0"
         sodipodi:nodetypes="csc"
         inkscape:export-filename="G:\apmeneel\Dropbox\Art\Junk Land\wood.png"
         inkscape:export-xdpi="56.41"
         inkscape:export-ydpi="56.41" />
      <path
         style="fill:none;stroke:#ffffff;stroke-width:3;stroke-linecap:round;stroke-linejoin:miter;stroke-miterlimit:4;stroke-opacity:1;stroke-dasharray:none"
         d="m -268.50918,505.90644 c 11.49618,-0.54432 5.19631,0.22847 18.75043,-1.21538"
         id="path6040"
         inkscape:connector-curvature="0"
         sodipodi:nodetypes="cc"
         inkscape:export-filename="G:\apmeneel\Dropbox\Art\Junk Land\wood.png"
         inkscape:export-xdpi="56.41"
         inkscape:export-ydpi="56.41" />
    </g>
    <text
       xml:space="preserve"
       style="font-size:241.98881531px;font-style:normal;font-variant:normal;font-weight:bold;font-stretch:normal;text-align:start;line-height:125%;letter-spacing:0px;word-spacing:0px;writing-mode:lr-tb;text-anchor:start;fill:#ffffff;fill-opacity:1;stroke:none;display:inline;font-family:Action Man;-inkscape-font-specification:Action Man Bold"
       x="53.857143"
       y="238.98598"
       id="text5709"
       sodipodi:linespacing="125%"><tspan
         sodipodi:role="line"
         id="tspan5711"
         x="53.857143"
         y="238.98598">3</tspan></text>
    <text
       sodipodi:linespacing="125%"
       id="text5826"
       y="-585.32562"
       x="-542.21429"
       style="font-size:241.98881531px;font-style:normal;font-variant:normal;font-weight:bold;font-stretch:normal;text-align:start;line-height:125%;letter-spacing:0px;word-spacing:0px;writing-mode:lr-tb;text-anchor:start;fill:#ffffff;fill-opacity:1;stroke:none;display:inline;font-family:Action Man;-inkscape-font-specification:Action Man Bold"
       xml:space="preserve"
       transform="scale(-1,-1)"><tspan
         y="-585.32562"
         x="-542.21429"
         id="tspan5828"
         sodipodi:role="line">3</tspan></text>
  </g>
  <g
     style="display:none"
     inkscape:label="metal"
     id="g5883"
     inkscape:groupmode="layer">
    <rect
       inkscape:export-ydpi="56.349998"
       inkscape:export-xdpi="56.349998"
       inkscape:export-filename="G:\apmeneel\Dropbox\Art\Junk Land\metal.png"
       ry="0"
       y="0"
       x="0"
       height="825"
       width="600"
       id="rect6086"
       style="fill:#666666;fill-opacity:1;fill-rule:nonzero;stroke:none" />
    <text
       sodipodi:linespacing="125%"
       id="text5905"
       y="238.98598"
       x="53.857143"
       style="font-size:241.98881531px;font-style:normal;font-variant:normal;font-weight:bold;font-stretch:normal;text-align:start;line-height:125%;letter-spacing:0px;word-spacing:0px;writing-mode:lr-tb;text-anchor:start;fill:#ffffff;fill-opacity:1;stroke:none;display:inline;font-family:Action Man;-inkscape-font-specification:Action Man Bold"
       xml:space="preserve"><tspan
         y="238.98598"
         x="53.857143"
         id="tspan5907"
         sodipodi:role="line">5</tspan></text>
    <text
       transform="scale(-1,-1)"
       xml:space="preserve"
       style="font-size:241.98881531px;font-style:normal;font-variant:normal;font-weight:bold;font-stretch:normal;text-align:start;line-height:125%;letter-spacing:0px;word-spacing:0px;writing-mode:lr-tb;text-anchor:start;fill:#ffffff;fill-opacity:1;stroke:none;display:inline;font-family:Action Man;-inkscape-font-specification:Action Man Bold"
       x="-542.21429"
       y="-585.32562"
       id="text5909"
       sodipodi:linespacing="125%"><tspan
         sodipodi:role="line"
         id="tspan5911"
         x="-542.21429"
         y="-585.32562">5</tspan></text>
    <path
       inkscape:export-ydpi="56.349998"
       inkscape:export-xdpi="56.349998"
       inkscape:export-filename="G:\apmeneel\Dropbox\Art\Junk Land\metal.png"
       sodipodi:nodetypes="csccsccc"
       inkscape:connector-curvature="0"
       id="path6090"
       d="m 164.97241,273.82175 c -1.31099,6.45603 -2.06722,13.06604 -2.32306,19.86448 -2.17945,57.91229 37.4523,107.46573 93.14817,121.34217 44.97499,49.3093 72.16701,72.72387 110.01988,127.30324 14.48349,9.93267 21.69786,2.69266 31.32397,-7.54245 3.52167,-3.74454 -2.1793,-10.87195 -3.24387,-16.28626 C 349.50389,470.21167 322.41635,436.94516 274.81955,388.32811 233.52608,346.14929 203.24165,302.95817 164.97241,273.82175 z"
       style="fill:#ffffff;fill-opacity:1;fill-rule:nonzero;stroke:#666666;stroke-width:6.88452339;stroke-miterlimit:4;stroke-opacity:1;stroke-dasharray:none" />
    <path
       inkscape:export-ydpi="56.349998"
       inkscape:export-xdpi="56.349998"
       inkscape:export-filename="G:\apmeneel\Dropbox\Art\Junk Land\metal.png"
       sodipodi:nodetypes="ccssccsscccccccccccccccccccccc"
       inkscape:connector-curvature="0"
       id="path6092"
       d="m 444.38432,312.86773 c -3.78616,-0.64178 -11.18086,-11.56417 -12.8893,-11.8827 -23.12193,17.54599 -22.1578,21.0914 -51.21701,52.34987 -2.11754,2.27782 -7.27441,0.084 -5.38495,-2.38624 15.29954,-20.00195 36.89594,-38.16532 52.63103,-54.84362 0.71496,1.38475 -10.65598,-8.25711 -12.66467,-10.92736 -7.43415,0.007 -32.73303,30.68245 -55.08633,52.28543 -1.84811,1.78622 -5.54796,-1.96622 -3.55145,-3.58495 24.16346,-19.59061 42.81385,-40.41705 52.75355,-56.37274 -3.07548,-3.53133 -8.89133,-8.65288 -11.09567,-11.49516 -20.76622,23.09316 -33.25147,40.28362 -61.86201,63.07918 -7.7091,7.09952 -18.08844,18.4799 -17.14409,28.94325 0.14489,1.49604 0.81025,2.65683 0.88637,4.17766 -0.55451,1.88961 -2.83863,3.59046 -4.2451,5.35171 -10.11465,11.22129 -36.24198,38.99637 -46.40878,50.18328 -8.92669,9.60546 -18.95974,17.99835 -28.4292,27.00422 -14.45641,13.40647 -58.25209,53.69115 -72.59632,67.2404 -3.86199,3.66763 -4.97732,7.3996 -6.36143,11.54479 -1.65228,4.92202 -3.52402,9.5371 -2.91561,13.22865 0.74655,4.17798 1.79665,8.26847 4.71028,10.64045 3.19532,2.77635 8.08754,3.86717 14.04405,2.70877 4.99827,-0.98434 10.84433,-3.84468 16.24918,-8.16495 4.05302,-3.15005 7.6516,-7.07694 11.00667,-10.97689 12.39104,-13.78724 54.21418,-54.37441 67.05528,-67.83792 10.84848,-11.32869 22.07035,-22.35907 33.68928,-32.83859 7.90538,-7.19952 32.39873,-30.38713 40.51368,-37.22197 1.89072,-1.74367 3.46157,-1.18748 4.63684,-0.89373 11.10372,2.1483 21.68256,-6.92293 29.09506,-14.33622 27.99706,-30.67155 41.60645,-39.18807 64.5806,-64.97445 z"
       style="fill:#ffffff;fill-opacity:1;fill-rule:nonzero;stroke:#666666;stroke-width:4.1385498;stroke-miterlimit:4;stroke-opacity:1;stroke-dasharray:none" />
  </g>
  <g
     inkscape:groupmode="layer"
     id="g5947"
     inkscape:label="glass"
     style="display:none">
    <rect
       inkscape:export-ydpi="56.41"
       inkscape:export-xdpi="56.41"
       inkscape:export-filename="G:\apmeneel\Dropbox\Art\Junk Land\glass.png"
       style="fill:#00b8bd;fill-opacity:1;fill-rule:nonzero;stroke:none"
       id="rect6060"
       width="600"
       height="825"
       x="0"
       y="0"
       ry="0" />
    <text
       xml:space="preserve"
       style="font-size:241.98881531px;font-style:normal;font-variant:normal;font-weight:bold;font-stretch:normal;text-align:start;line-height:125%;letter-spacing:0px;word-spacing:0px;writing-mode:lr-tb;text-anchor:start;fill:#ffffff;fill-opacity:1;stroke:none;display:inline;font-family:Action Man;-inkscape-font-specification:Action Man Bold"
       x="53.857143"
       y="238.98598"
       id="text5951"
       sodipodi:linespacing="125%"><tspan
         sodipodi:role="line"
         id="tspan5953"
         x="53.857143"
         y="238.98598">10</tspan></text>
    <text
       sodipodi:linespacing="125%"
       id="text5955"
       y="-585.32562"
       x="-542.21429"
       style="font-size:241.98881531px;font-style:normal;font-variant:normal;font-weight:bold;font-stretch:normal;text-align:start;line-height:125%;letter-spacing:0px;word-spacing:0px;writing-mode:lr-tb;text-anchor:start;fill:#ffffff;fill-opacity:1;stroke:none;display:inline;font-family:Action Man;-inkscape-font-specification:Action Man Bold"
       xml:space="preserve"
       transform="scale(-1,-1)"><tspan
         y="-585.32562"
         x="-542.21429"
         id="tspan5957"
         sodipodi:role="line">10</tspan></text>
    <g
       id="g6013">
      <g
         id="g6019"
         transform="matrix(1.7341526,0,0,1.7341526,-157.68493,-660.49482)">
        <path
           inkscape:export-ydpi="56.41"
           inkscape:export-xdpi="56.41"
           inkscape:export-filename="G:\apmeneel\Dropbox\Art\Junk Land\glass.png"
           sodipodi:nodetypes="ccccc"
           inkscape:connector-curvature="0"
           id="path6064"
           d="m 252.60746,622.74079 15.6022,0 c -2.9432,30.08939 -1.5606,60.71951 0,91.3719 l -15.6022,0 c 2.0658,-30.26949 4.1066,-60.54128 0,-91.3719 z"
           style="fill:#ffffff;fill-opacity:1;fill-rule:nonzero;stroke:#00b8bd;stroke-width:3.62039614;stroke-linecap:round;stroke-linejoin:round;stroke-miterlimit:4;stroke-opacity:1;stroke-dashoffset:0" />
        <path
           inkscape:export-ydpi="56.41"
           inkscape:export-xdpi="56.41"
           inkscape:export-filename="G:\apmeneel\Dropbox\Art\Junk Land\glass.png"
           sodipodi:nodetypes="sssss"
           inkscape:connector-curvature="0"
           id="path6066"
           d="m 306.12296,574.32899 c 0.5525,31.63853 -20.467,57.29539 -45.7144,57.29539 -25.24726,0 -45.71429,-25.65203 -45.71429,-57.29539 0,-48.71009 14.01472,-22.44786 45.96679,-22.44786 34.3903,0 44.5999,-26.91507 45.4619,22.44786 z"
           style="fill:#ffffff;fill-opacity:1;fill-rule:nonzero;stroke:#00b8bd;stroke-width:3.62039614;stroke-linecap:round;stroke-linejoin:round;stroke-miterlimit:4;stroke-opacity:1;stroke-dashoffset:0" />
        <path
           inkscape:export-ydpi="56.41"
           inkscape:export-xdpi="56.41"
           inkscape:export-filename="G:\apmeneel\Dropbox\Art\Junk Land\glass.png"
           sodipodi:nodetypes="ccsc"
           inkscape:connector-curvature="0"
           id="path6068"
           d="m 310.65666,717.48979 -100.4961,0 c 16.16248,-11.83642 32.4104,-11.96585 50.248,-12.22388 13.4899,-0.19514 27.6211,-0.0436 50.2481,12.22388 z"
           style="fill:#ffffff;fill-opacity:1;fill-rule:nonzero;stroke:#00b8bd;stroke-width:2.42649293;stroke-linecap:round;stroke-linejoin:round;stroke-miterlimit:4;stroke-opacity:1;stroke-dashoffset:0" />
        <path
           inkscape:export-ydpi="56.41"
           inkscape:export-xdpi="56.41"
           inkscape:export-filename="G:\apmeneel\Dropbox\Art\Junk Land\glass.png"
           sodipodi:nodetypes="cccc"
           inkscape:connector-curvature="0"
           id="path6070"
           d="m 294.22126,519.48439 -26.8264,49.56803 17.0107,13.80992 14.6287,39.00962"
           style="fill:none;stroke:#00b8bd;stroke-width:2.41359735;stroke-linecap:butt;stroke-linejoin:miter;stroke-miterlimit:4;stroke-opacity:1;stroke-dasharray:none" />
      </g>
    </g>
    <flowRoot
       xml:space="preserve"
       id="flowRoot5999"
       style="font-size:40px;font-style:normal;font-variant:normal;font-weight:normal;font-stretch:normal;line-height:125%;letter-spacing:0px;word-spacing:0px;fill:#000000;fill-opacity:1;stroke:none;font-family:Rockwell;-inkscape-font-specification:Rockwell"><flowRegion
         id="flowRegion6001"><rect
           id="rect6003"
           width="81.428574"
           height="91.428574"
           x="-345.71429"
           y="385" /></flowRegion><flowPara
         id="flowPara6005"></flowPara></flowRoot>  </g>
  <g
     style="display:none"
     inkscape:label="duct tape"
     id="g6025"
     inkscape:groupmode="layer">
    <rect
       style="fill:#4d4d4d;fill-opacity:1;fill-rule:nonzero;stroke:none"
       id="rect6074"
       width="600"
       height="825"
       x="0"
       y="0"
       ry="0"
       inkscape:export-filename="G:\apmeneel\Dropbox\Art\Junk Land\marketing-elements.png"
       inkscape:export-xdpi="61.535954"
       inkscape:export-ydpi="61.535954" />
    <text
       sodipodi:linespacing="125%"
       id="text6029"
       y="240.98598"
       x="55.857143"
       style="font-size:241.98881531px;font-style:normal;font-variant:normal;font-weight:bold;font-stretch:normal;text-align:start;line-height:125%;letter-spacing:0px;word-spacing:0px;writing-mode:lr-tb;text-anchor:start;fill:#ffffff;fill-opacity:1;stroke:none;display:inline;font-family:Action Man;-inkscape-font-specification:Action Man Bold"
       xml:space="preserve"><tspan
         y="240.98598"
         x="55.857143"
         id="tspan6031"
         sodipodi:role="line">3</tspan></text>
    <text
       transform="scale(-1,-1)"
       xml:space="preserve"
       style="font-size:241.98881531px;font-style:normal;font-variant:normal;font-weight:bold;font-stretch:normal;text-align:start;line-height:125%;letter-spacing:0px;word-spacing:0px;writing-mode:lr-tb;text-anchor:start;fill:#ffffff;fill-opacity:1;stroke:none;display:inline;font-family:Action Man;-inkscape-font-specification:Action Man Bold"
       x="-542.21429"
       y="-585.32562"
       id="text6033"
       sodipodi:linespacing="125%"
       inkscape:export-filename="G:\apmeneel\workspaces\ruby-workspace\junk-land\_output\resource_duct_tape_10.png"
       inkscape:export-xdpi="90"
       inkscape:export-ydpi="90"><tspan
         sodipodi:role="line"
         id="tspan6035"
         x="-542.21429"
         y="-585.32562">3</tspan></text>
    <flowRoot
       style="font-size:40px;font-style:normal;font-variant:normal;font-weight:normal;font-stretch:normal;line-height:125%;letter-spacing:0px;word-spacing:0px;fill:#000000;fill-opacity:1;stroke:none;font-family:Rockwell;-inkscape-font-specification:Rockwell"
       id="flowRoot6049"
       xml:space="preserve"><flowRegion
         id="flowRegion6051"><rect
           y="385"
           x="-345.71429"
           height="91.428574"
           width="81.428574"
           id="rect6053" /></flowRegion><flowPara
         id="flowPara6055"></flowPara></flowRoot>    <g
       id="g6135"
       transform="matrix(1.7733395,0,0,1.7733395,-189.50384,-278.50521)">
      <g
         id="g6153"
         transform="translate(5.6390781,0)">
        <path
           inkscape:export-ydpi="61.535954"
           inkscape:export-xdpi="61.535954"
           inkscape:export-filename="G:\apmeneel\Dropbox\Art\Junk Land\marketing-elements.png"
           inkscape:connector-curvature="0"
           id="path6078"
           d="m 239.62063,349.05013 c -40.8914,4.43824 -73.2007,15.80471 -72.1601,25.39253 0.035,0.327 0.1166,0.65579 0.2276,0.97006 l 4.7672,43.92174 c -0.041,0.33079 -0.052,0.64923 -0.016,0.97622 1.0407,9.58783 35.0363,13.75774 75.9276,9.3195 40.4553,-4.39092 72.4973,-15.56673 72.1685,-25.08894 l 0.024,-0.003 -5.0111,-46.16901 -0.068,-0.622 -0.048,0.005 c -2.4231,-9.14253 -35.8198,-13.04335 -75.8117,-8.70272 z"
           style="fill:#ffffff;fill-opacity:1;fill-rule:nonzero;stroke:none" />
        <path
           inkscape:export-ydpi="61.535954"
           inkscape:export-xdpi="61.535954"
           inkscape:export-filename="G:\apmeneel\Dropbox\Art\Junk Land\marketing-elements.png"
           transform="matrix(0.8468782,-0.091918,0.06363554,0.58630029,-135.87146,164.07733)"
           d="m 476.79201,415.461 a 64.649765,19.697975 0 1 1 -129.29953,0 64.649765,19.697975 0 1 1 129.29953,0 z"
           sodipodi:ry="19.697975"
           sodipodi:rx="64.649765"
           sodipodi:cy="415.461"
           sodipodi:cx="412.14224"
           id="path6080"
           style="fill:#4d4d4d;fill-opacity:1;fill-rule:nonzero;stroke:none"
           sodipodi:type="arc" />
        <path
           inkscape:export-ydpi="61.535954"
           inkscape:export-xdpi="61.535954"
           inkscape:export-filename="G:\apmeneel\Dropbox\Art\Junk Land\marketing-elements.png"
           sodipodi:nodetypes="ccccc"
           inkscape:connector-curvature="0"
           id="path6082"
           d="m 320.35563,357.62786 c 13.4261,-1.87003 21.4918,-5.49022 43.198,23.15972 l 5.5262,50.91519 c -16.989,-19.22312 -28.5347,-25.36487 -43.198,-23.15971 z"
           style="fill:#ffffff;fill-opacity:1;fill-rule:nonzero;stroke:none" />
      </g>
    </g>
  </g>
</svg>
